<?xml version="1.0" encoding="iso-8859-1"?>
<!-- Generator: Adobe Illustrator 18.0.0, SVG Export Plug-In . SVG Version: 6.00 Build 0)  -->
<!DOCTYPE svg PUBLIC "-//W3C//DTD SVG 1.1//EN" "http://www.w3.org/Graphics/SVG/1.1/DTD/svg11.dtd">
<svg version="1.1" id="Capa_1" xmlns="http://www.w3.org/2000/svg" xmlns:xlink="http://www.w3.org/1999/xlink" x="0px" y="0px"
	 viewBox="0 0 53.942 53.942" style="enable-background:new 0 0 53.942 53.942;" xml:space="preserve">
<path d="M53.364,40.912c-2.008-3.796-8.981-7.912-9.288-8.092c-1.277-0.728-2.599-0.956-3.722-0.646
	c-0.844,0.234-1.532,0.768-1.995,1.546c-1.02,1.22-2.285,2.646-2.592,2.867c-2.367,1.603-4.25,1.415-6.294-0.629L17.987,24.471
	c-2.045-2.045-2.233-3.928-0.632-6.291c0.224-0.309,1.65-1.575,2.87-2.596c0.778-0.463,1.312-1.151,1.546-1.995
	c0.311-1.123,0.082-2.444-0.652-3.731c-0.173-0.296-4.291-7.27-8.085-9.277c-1.925-1.019-4.255-0.67-5.796,0.872L4.7,3.99
	c-4.014,4.013-5.467,8.562-4.321,13.52c0.956,4.132,3.742,8.529,8.282,13.068l14.705,14.705c5.762,5.762,11.258,8.657,16.298,8.657
	c3.701,0,7.157-1.562,10.291-4.695l2.537-2.537C54.033,45.167,54.383,42.838,53.364,40.912z M51.078,45.294l-2.537,2.537
	c-6.569,6.567-14.562,5.236-23.76-3.962L10.075,29.164c-4.271-4.271-6.877-8.344-7.747-12.105c-0.995-4.3,0.244-8.112,3.786-11.654
	l2.537-2.537c0.567-0.566,1.313-0.862,2.07-0.862c0.467,0,0.939,0.112,1.376,0.344c3.293,1.743,7.256,8.454,7.29,8.511
	c0.449,0.787,0.62,1.608,0.457,2.196c-0.1,0.359-0.323,0.633-0.683,0.835l-0.151,0.104c-0.853,0.711-2.882,2.433-3.308,3.061
	c-0.612,0.904-1.018,1.792-1.23,2.665c-0.711-1.418-1.286-3.061-1.475-4.881c-0.057-0.549-0.545-0.934-1.098-0.892
	c-0.549,0.058-0.949,0.549-0.892,1.099c0.722,6.953,6.129,11.479,6.359,11.668c0.025,0.021,0.056,0.029,0.082,0.047l10.611,10.611
	c0.045,0.045,0.09,0.083,0.135,0.127c0.036,0.052,0.059,0.11,0.105,0.156c0.189,0.187,4.704,4.567,11.599,5.283
	c0.035,0.003,0.07,0.005,0.104,0.005c0.506,0,0.94-0.383,0.994-0.896c0.057-0.55-0.342-1.041-0.892-1.099
	c-2.114-0.219-3.987-0.839-5.549-1.558c0.765-0.23,1.543-0.612,2.332-1.147c0.628-0.425,2.351-2.455,3.062-3.308l0.104-0.151
	c0.202-0.359,0.475-0.583,0.835-0.683c0.589-0.164,1.41,0.007,2.187,0.45c0.068,0.04,6.778,4.002,8.521,7.296
	C52.202,42.993,51.994,44.378,51.078,45.294z"/>
<g>
</g>
<g>
</g>
<g>
</g>
<g>
</g>
<g>
</g>
<g>
</g>
<g>
</g>
<g>
</g>
<g>
</g>
<g>
</g>
<g>
</g>
<g>
</g>
<g>
</g>
<g>
</g>
<g>
</g>
</svg>
