<?xml version="1.0" encoding="iso-8859-1"?>
<!-- Generator: Adobe Illustrator 19.0.0, SVG Export Plug-In . SVG Version: 6.00 Build 0)  -->
<svg version="1.1" id="Layer_1" xmlns="http://www.w3.org/2000/svg" xmlns:xlink="http://www.w3.org/1999/xlink" x="0px" y="0px"
	 viewBox="0 0 512 512" style="enable-background:new 0 0 512 512;" xml:space="preserve">
<g>
	<g>
		<path d="M0,291.571v97.01h512v-97.01H0z M347.621,372.413H72.758v-16.168H56.589v16.168H40.421v-16.168H24.253v16.168h-8.084
			v-16.168h8.084v-16.168h-8.084v-16.168h8.084v-16.168h16.168v16.168h16.168v-16.168h16.168v16.168h16.168v-16.168h258.695V372.413
			z M495.832,372.413H363.789v-64.674h132.042V372.413z"/>
	</g>
</g>
<g>
	<g>
		<rect x="40.421" y="340.076" width="16.168" height="16.168"/>
	</g>
</g>
<g>
	<g>
		<rect x="72.758" y="340.076" width="16.168" height="16.168"/>
	</g>
</g>
<g>
	<g>
		<rect x="24.253" y="323.907" width="16.168" height="16.168"/>
	</g>
</g>
<g>
	<g>
		<rect x="56.589" y="323.907" width="16.168" height="16.168"/>
	</g>
</g>
<g>
	<g>
		<rect y="188.093" width="16.168" height="16.168"/>
	</g>
</g>
<g>
	<g>
		<rect y="220.43" width="16.168" height="16.168"/>
	</g>
</g>
<g>
	<g>
		<rect y="252.766" width="16.168" height="16.168"/>
	</g>
</g>
<g>
	<g>
		<rect x="36.379" y="188.093" width="16.168" height="16.168"/>
	</g>
</g>
<g>
	<g>
		<rect x="36.379" y="155.756" width="16.168" height="16.168"/>
	</g>
</g>
<g>
	<g>
		<rect x="36.379" y="220.43" width="16.168" height="16.168"/>
	</g>
</g>
<g>
	<g>
		<rect x="36.379" y="252.766" width="16.168" height="16.168"/>
	</g>
</g>
<g>
	<g>
		<rect x="72.758" y="155.756" width="16.168" height="16.168"/>
	</g>
</g>
<g>
	<g>
		<rect x="72.758" y="123.419" width="16.168" height="16.168"/>
	</g>
</g>
<g>
	<g>
		<rect x="72.758" y="188.093" width="16.168" height="16.168"/>
	</g>
</g>
<g>
	<g>
		<rect x="72.758" y="220.43" width="16.168" height="16.168"/>
	</g>
</g>
<g>
	<g>
		<rect x="72.758" y="252.766" width="16.168" height="16.168"/>
	</g>
</g>
<g>
</g>
<g>
</g>
<g>
</g>
<g>
</g>
<g>
</g>
<g>
</g>
<g>
</g>
<g>
</g>
<g>
</g>
<g>
</g>
<g>
</g>
<g>
</g>
<g>
</g>
<g>
</g>
<g>
</g>
</svg>
