<?xml version="1.0" encoding="iso-8859-1"?>
<!-- Generator: Adobe Illustrator 19.0.0, SVG Export Plug-In . SVG Version: 6.00 Build 0)  -->
<svg version="1.1" id="Layer_1" xmlns="http://www.w3.org/2000/svg" xmlns:xlink="http://www.w3.org/1999/xlink" x="0px" y="0px"
	 viewBox="0 0 512 512" style="enable-background:new 0 0 512 512;" xml:space="preserve">
<g>
	<g>
		<rect x="72.758" y="298.005" width="16.168" height="16.168"/>
	</g>
</g>
<g>
	<g>
		<rect x="40.421" y="298.005" width="16.168" height="16.168"/>
	</g>
</g>
<g>
	<g>
		<rect x="24.253" y="281.836" width="16.168" height="16.168"/>
	</g>
</g>
<g>
	<g>
		<rect x="56.589" y="281.836" width="16.168" height="16.168"/>
	</g>
</g>
<g>
	<g>
		<polygon points="72.758,330.345 72.758,314.176 56.589,314.176 56.589,330.345 40.421,330.345 40.421,314.176 24.253,314.176 
			24.253,330.345 16.168,330.345 16.168,314.176 24.253,314.176 24.253,298.008 16.168,298.008 16.168,281.84 24.253,281.84 
			24.253,265.671 40.421,265.671 40.421,281.84 56.589,281.84 56.589,265.671 72.758,265.671 72.758,281.84 88.926,281.84 
			88.926,265.671 191.326,265.671 191.326,249.503 0,249.503 0,346.513 270.552,346.513 270.552,330.345 		"/>
	</g>
</g>
<g>
	<g>
		<path d="M263.545,249.503v16.168h84.076v80.842H512v-97.011H263.545z M495.832,330.345H363.789v-64.674h132.042V330.345z"/>
	</g>
</g>
<g>
	<g>
		<rect y="178.358" width="16.168" height="16.168"/>
	</g>
</g>
<g>
	<g>
		<rect y="146.022" width="16.168" height="16.168"/>
	</g>
</g>
<g>
	<g>
		<rect y="210.695" width="16.168" height="16.168"/>
	</g>
</g>
<g>
	<g>
		<rect x="36.379" y="178.358" width="16.168" height="16.168"/>
	</g>
</g>
<g>
	<g>
		<rect x="36.379" y="113.685" width="16.168" height="16.168"/>
	</g>
</g>
<g>
	<g>
		<rect x="36.379" y="146.022" width="16.168" height="16.168"/>
	</g>
</g>
<g>
	<g>
		<rect x="36.379" y="210.695" width="16.168" height="16.168"/>
	</g>
</g>
<g>
	<g>
		<rect x="72.758" y="146.022" width="16.168" height="16.168"/>
	</g>
</g>
<g>
	<g>
		<rect x="72.758" y="113.685" width="16.168" height="16.168"/>
	</g>
</g>
<g>
	<g>
		<rect x="72.758" y="81.348" width="16.168" height="16.168"/>
	</g>
</g>
<g>
	<g>
		<rect x="72.758" y="210.695" width="16.168" height="16.168"/>
	</g>
</g>
<g>
	<g>
		<rect x="72.758" y="178.358" width="16.168" height="16.168"/>
	</g>
</g>
<g>
	<g>
		
			<rect x="258.829" y="113.643" transform="matrix(0.7071 -0.7071 0.7071 0.7071 -131.1225 275.4304)" width="16.168" height="364.702"/>
	</g>
</g>
<g>
</g>
<g>
</g>
<g>
</g>
<g>
</g>
<g>
</g>
<g>
</g>
<g>
</g>
<g>
</g>
<g>
</g>
<g>
</g>
<g>
</g>
<g>
</g>
<g>
</g>
<g>
</g>
<g>
</g>
</svg>
