<?xml version="1.0" encoding="iso-8859-1"?>
<!-- Generator: Adobe Illustrator 19.0.0, SVG Export Plug-In . SVG Version: 6.00 Build 0)  -->
<svg version="1.1" id="Capa_1" xmlns="http://www.w3.org/2000/svg" xmlns:xlink="http://www.w3.org/1999/xlink" x="0px" y="0px"
	 viewBox="0 0 512.001 512.001" style="enable-background:new 0 0 512.001 512.001;" xml:space="preserve">
<g>
	<g>
		<path d="M351.534,136.849c2.083,0,4.183-0.165,6.28-0.497c10.438-1.655,19.606-7.276,25.816-15.827l37.685-51.888
			c1.527-2.103,1.857-4.847,0.871-7.252c-0.986-2.405-3.147-4.128-5.711-4.554c-0.668-0.111-15.448-2.538-33.495-2.738
			c-5.78-17.094-12.647-30.393-12.964-31.005c-1.198-2.307-3.505-3.829-6.097-4.022c-2.589-0.198-5.1,0.968-6.627,3.072
			l-37.685,51.888c-6.21,8.551-8.719,19.008-7.064,29.446c1.225,7.729,4.63,14.758,9.784,20.409
			c-5.705,6.779-15.749,19.115-26.761,34.467v-6.558c0-4.142-3.358-7.5-7.5-7.5c-4.142,0-7.5,3.358-7.5,7.5v28.656
			c-6.019,9.422-11.881,19.384-17.064,29.497v-42.118c0-0.001,0-0.003,0-0.005v-12.923l21.852-21.852
			c2.929-2.929,2.929-7.678,0-10.606c-2.929-2.929-7.678-2.929-10.606,0L263.5,133.684v-23.213
			c18.24-3.516,32.064-19.591,32.064-38.842V7.5c0-2.599-1.346-5.013-3.557-6.38s-4.971-1.491-7.297-0.328
			c-0.606,0.303-13.98,7.03-28.709,17.469C241.279,7.826,227.906,1.1,227.29,0.792c-2.326-1.163-5.087-1.038-7.297,0.328
			c-2.211,1.367-3.557,3.781-3.557,6.38v64.129c0,19.251,13.824,35.327,32.064,38.842v39.245l-19.261-19.261
			c-2.929-2.929-7.678-2.929-10.606,0c-2.929,2.929-2.929,7.678,0,10.606l29.868,29.868v39.014
			c-19.13-37.322-47.512-72.62-58.825-86.062c5.154-5.651,8.559-12.68,9.784-20.409c1.655-10.438-0.854-20.895-7.064-29.446
			l-37.685-51.888c-1.527-2.104-4.038-3.269-6.627-3.072c-2.592,0.193-4.899,1.715-6.097,4.022
			C141.667,23.7,134.8,37,129.021,54.094c-18.039,0.202-32.826,2.626-33.495,2.737c-2.564,0.426-4.726,2.149-5.711,4.554
			c-0.986,2.405-0.656,5.149,0.871,7.252l37.685,51.888c6.21,8.551,15.378,14.171,25.816,15.827c2.098,0.333,4.196,0.497,6.28,0.497
			c5.965,0,11.805-1.354,17.159-3.961c2.317,2.757,5.518,6.633,9.307,11.403h-6.585c-4.142,0-7.5,3.358-7.5,7.5
			c0,4.142,3.358,7.5,7.5,7.5h18.116c10.958,14.735,23.657,33.276,33.983,52.405c-12.199-11.987-25.755-22.743-40.558-32.164
			c-44.914-28.582-85.382-34.903-87.083-35.158c-2.157-0.323-4.352,0.31-6.006,1.734c-1.655,1.425-2.606,3.5-2.606,5.683
			c0,1.199,0.165,29.82,14.469,69.669c12.917,35.983,40.355,88.233,97.757,134.332v27.484l-31.811,119.292
			c-0.601,2.251-0.121,4.654,1.299,6.502c1.419,1.848,3.617,2.931,5.947,2.931h144.29c2.33,0,4.528-1.083,5.947-2.931
			c1.42-1.848,1.9-4.25,1.299-6.502L303.58,383.276v-27.484c57.401-46.099,84.84-98.349,97.757-134.332
			c14.305-39.849,14.469-68.47,14.469-69.669c0-2.183-0.952-4.258-2.606-5.683c-1.654-1.425-3.845-2.059-6.007-1.734
			c-0.993,0.149-24.689,3.814-55.887,18.173c-20.442,9.408-46.979,24.897-71.817,49.275c10.339-19.169,23.071-37.761,34.053-52.531
			h18.109c4.142,0,7.5-3.358,7.5-7.5c0-4.142-3.358-7.5-7.5-7.5h-6.58c3.788-4.769,6.987-8.645,9.303-11.402
			C339.73,135.495,345.569,136.849,351.534,136.849z M401.695,70.126L390.37,85.719c-0.534-5.133-1.505-10.629-2.952-16.515
			C392.699,69.384,397.592,69.739,401.695,70.126z M121.63,85.719l-11.327-15.596c4.099-0.387,8.991-0.74,14.279-0.918
			C123.135,75.091,122.164,80.586,121.63,85.719z M174.818,117.151c-5.31,3.856-11.802,5.414-18.283,4.386
			c-6.48-1.028-12.172-4.517-16.028-9.826c-10.755-14.808,0.653-49.802,9.536-70.473l30.215,41.602
			C188.217,93.799,185.777,109.191,174.818,117.151z M280.564,20.233v19.241c-3.443-3.829-7.474-7.697-12.092-11.598
			C272.85,24.918,277.016,22.331,280.564,20.233z M231.436,71.629V20.212c19.336,11.506,49.129,33.115,49.129,51.417
			c0,13.545-11.02,24.564-24.564,24.564S231.436,85.174,231.436,71.629z M125.012,217.034c-8.875-24.523-12.051-44.737-13.188-55.88
			c13.987,3.407,42.084,11.988,72.012,31.033c24.793,15.778,45.848,35.522,62.576,58.686c19.354,26.798,32.958,58.33,40.528,93.821
			h-17.469c-9.591-42.074-28.467-77.889-56.175-106.518c-2.88-2.977-7.628-3.055-10.605-0.173c-2.977,2.88-3.054,7.629-0.173,10.605
			c25.038,25.87,42.339,58.167,51.534,96.086h-35.497C163.617,300.833,137.363,251.165,125.012,217.034z M288.58,359.693v17.065
			h-65.161v-17.065H288.58z M318.383,497h-31.768l-1.269-9.521c-0.547-4.105-4.319-6.992-8.425-6.443
			c-4.106,0.547-6.99,4.319-6.443,8.425l1.005,7.538h-77.865l28.064-105.242h35.768l8.752,65.639c0.502,3.77,3.723,6.51,7.425,6.51
			c0.33,0,0.664-0.022,1-0.067c4.106-0.547,6.99-4.319,6.443-8.425l-8.488-63.657h17.736L318.383,497z M357.101,176.393
			c18.129-8.39,33.736-12.958,43.073-15.234c-1.137,11.147-4.314,31.357-13.187,55.875c-11.776,32.542-36.183,79.21-86.047,121.501
			c-7.217-32.239-19.245-61.387-35.871-86.929C293.9,211.377,330.862,188.535,357.101,176.393z M331.742,82.84l30.22-41.609
			c8.891,20.661,20.307,55.643,9.531,70.48c-3.856,5.309-9.548,8.798-16.028,9.826c-6.481,1.027-12.973-0.53-18.282-4.386
			C326.223,109.191,323.783,93.8,331.742,82.84z"/>
	</g>
</g>
<g>
	<g>
		<path d="M188.383,216.187c-5.301-3.993-10.879-7.809-16.581-11.342c-3.522-2.183-8.144-1.097-10.326,2.424
			s-1.097,8.144,2.424,10.326c5.316,3.295,10.517,6.853,15.458,10.573c1.352,1.018,2.936,1.51,4.506,1.51
			c2.275,0,4.522-1.031,5.997-2.988C192.354,223.381,191.691,218.679,188.383,216.187z"/>
	</g>
</g>
<g>
</g>
<g>
</g>
<g>
</g>
<g>
</g>
<g>
</g>
<g>
</g>
<g>
</g>
<g>
</g>
<g>
</g>
<g>
</g>
<g>
</g>
<g>
</g>
<g>
</g>
<g>
</g>
<g>
</g>
</svg>
