<?xml version="1.0" encoding="iso-8859-1"?>
<!-- Generator: Adobe Illustrator 19.0.0, SVG Export Plug-In . SVG Version: 6.00 Build 0)  -->
<svg version="1.1" id="Capa_1" xmlns="http://www.w3.org/2000/svg" xmlns:xlink="http://www.w3.org/1999/xlink" x="0px" y="0px"
	 viewBox="0 0 483.312 483.312" style="enable-background:new 0 0 483.312 483.312;" xml:space="preserve">
<g>
	<g>
		<path d="M417.656,234.84c36.414-4.108,63.95-34.883,64-71.528v-48h-8c-5.662,0.014-11.302,0.705-16.8,2.056
			c-5.34-9.371-11.896-17.995-19.496-25.648L409.656,64l-27.712,27.72c-7.599,7.652-14.151,16.277-19.488,25.648
			c-5.498-1.351-11.138-2.042-16.8-2.056h-8v48c0.05,36.645,27.586,67.42,64,71.528v41.36c-10.507-10.798-24.934-16.889-40-16.888
			h-40v8c0.035,30.913,25.087,55.965,56,56h24v40h-152v-104h24c30.913-0.035,55.965-25.087,56-56v-8h-40
			c-15.066-0.001-29.493,6.09-40,16.888v-41.296c40.851-4.158,71.945-38.53,72-79.592v-40h-8c-8.114,0-16.181,1.241-23.92,3.68
			c-5.48-9.997-12.333-19.177-20.36-27.272L241.656,0l-27.712,27.72c-8.03,8.095-14.886,17.274-20.368,27.272
			c-7.739-2.439-15.806-3.68-23.92-3.68h-8v40c0.055,41.062,31.149,75.434,72,79.592V260.2c-10.507-10.798-24.934-16.889-40-16.888
			h-32v8c0.035,30.913,25.087,55.965,56,56h16v56h-152v-32h24c22.08-0.026,39.974-17.92,40-40v-8h-40
			c-8.683,0.031-17.116,2.915-24,8.208v-24.68c36.414-4.108,63.95-34.883,64-71.528v-48h-8c-5.662,0.014-11.302,0.705-16.8,2.056
			c-5.34-9.371-11.896-17.995-19.496-25.648L73.656,96l-27.712,27.72c-7.599,7.652-14.151,16.277-19.488,25.648
			c-5.498-1.351-11.138-2.042-16.8-2.056h-8v48c0.05,36.645,27.586,67.42,64,71.528v96.472h-64v48h16.84l8,72h421.56l16-72h17.6v-48
			h-64v-48V234.84z M377.656,307.312c-19.001-0.024-35.373-13.389-39.2-32h23.2c19.001,0.024,35.373,13.389,39.2,32H377.656z
			 M289.656,211.312h23.2c-3.827,18.611-20.199,31.976-39.2,32h-23.2C254.283,224.701,270.655,211.336,289.656,211.312z
			 M217.656,291.312c-19.001-0.024-35.373-13.389-39.2-32h15.2c19.001,0.024,35.373,13.389,39.2,32H217.656z M105.656,299.312
			h22.632c-3.401,9.583-12.463,15.99-22.632,16H83.024C86.425,305.729,95.487,299.322,105.656,299.312z M465.656,131.904v31.408
			c-0.035,27.826-20.465,51.419-48,55.432v-31.432C417.75,159.513,438.154,135.96,465.656,131.904z M353.656,163.312v-31.408
			c3.433,0.513,6.812,1.338,10.096,2.464c22.545,7.876,37.714,29.064,37.904,52.944v31.432
			C374.121,214.731,353.691,191.138,353.656,163.312z M305.656,67.808v23.504c-0.04,32.239-24.019,59.432-56,63.504v-23.504
			c0.007-4.778,0.544-9.54,1.6-14.2c4.606-20.16,18.654-36.859,37.728-44.848C294.314,70.031,299.923,68.532,305.656,67.808z
			 M225.256,39.032l16.4-16.408l16.4,16.408c6.608,6.63,12.308,14.105,16.952,22.232c-0.112,0.064-0.208,0.152-0.328,0.216
			c-3.249,1.83-6.366,3.886-9.328,6.152c-0.8,0.6-1.512,1.272-2.28,1.904c-2.146,1.759-4.2,3.628-6.152,5.6
			c-0.84,0.856-1.664,1.712-2.464,2.6c-1.873,2.082-3.635,4.261-5.28,6.528c-0.56,0.8-1.168,1.496-1.704,2.28
			c-2.087,3.066-3.958,6.274-5.6,9.6c-0.072,0.144-0.168,0.264-0.232,0.4c-0.064-0.144-0.168-0.264-0.232-0.4
			c-1.642-3.326-3.513-6.534-5.6-9.6c-0.536-0.8-1.144-1.512-1.704-2.28c-1.645-2.267-3.407-4.446-5.28-6.528
			c-0.8-0.888-1.6-1.752-2.464-2.6c-1.952-1.972-4.005-3.841-6.152-5.6c-0.8-0.632-1.488-1.304-2.28-1.904
			c-2.962-2.266-6.079-4.322-9.328-6.152c-0.112-0.064-0.208-0.152-0.328-0.216C212.926,53.135,218.637,45.66,225.256,39.032z
			 M177.656,91.312V67.808c5.704,0.719,11.285,2.204,16.592,4.416c19.074,7.989,33.122,24.688,37.728,44.848
			c1.086,4.67,1.649,9.446,1.68,14.24v23.504C201.675,150.744,177.696,123.551,177.656,91.312z M129.656,163.904v31.408
			c-0.035,27.826-20.465,51.419-48,55.432v-31.432C81.75,191.513,102.154,167.96,129.656,163.904z M57.256,135.032l16.4-16.408
			l16.408,16.408c5.97,5.974,11.205,12.64,15.592,19.856c-0.088,0.04-0.168,0.104-0.248,0.152c-3.231,1.629-6.333,3.501-9.28,5.6
			c-0.752,0.536-1.408,1.168-2.128,1.728c-2.128,1.612-4.166,3.34-6.104,5.176c-0.952,0.92-1.8,1.92-2.696,2.888
			c-1.544,1.664-3.048,3.344-4.432,5.144c-0.872,1.136-1.664,2.312-2.464,3.488c-1.224,1.8-2.4,3.64-3.432,5.544
			c-0.368,0.656-0.8,1.24-1.184,1.912c-0.344-0.664-0.8-1.256-1.184-1.912c-1.064-1.912-2.208-3.744-3.432-5.544
			c-0.8-1.184-1.6-2.36-2.464-3.488c-1.384-1.8-2.888-3.48-4.432-5.144c-0.896-0.968-1.744-1.968-2.696-2.888
			c-1.94-1.837-3.981-3.565-6.112-5.176c-0.72-0.56-1.376-1.192-2.12-1.72c-2.947-2.099-6.049-3.971-9.28-5.6
			c-0.088-0.048-0.16-0.112-0.248-0.152C46.088,147.679,51.304,141.01,57.256,135.032z M17.656,195.312v-31.408
			c3.433,0.513,6.812,1.338,10.096,2.464c20.179,6.968,34.671,24.764,37.408,45.936c0.31,2.323,0.476,4.664,0.496,7.008v31.432
			C38.121,246.731,17.691,223.138,17.656,195.312z M435.256,467.312h-394.4l-6.224-56H447.68L435.256,467.312z M465.656,379.312v16
			h-448v-16H465.656z M416.768,143.576c-0.872,1.136-1.664,2.312-2.464,3.488c-1.224,1.8-2.4,3.64-3.432,5.544
			c-0.368,0.656-0.8,1.24-1.184,1.912c-0.344-0.664-0.8-1.256-1.184-1.912c-1.064-1.912-2.208-3.744-3.432-5.544
			c-0.8-1.184-1.6-2.36-2.464-3.488c-1.384-1.8-2.888-3.48-4.432-5.144c-0.896-0.968-1.744-1.968-2.696-2.888
			c-1.94-1.837-3.981-3.565-6.112-5.176c-0.72-0.56-1.376-1.192-2.12-1.72c-2.947-2.099-6.049-3.971-9.28-5.6
			c-0.088-0.048-0.16-0.112-0.248-0.152c4.368-7.217,9.584-13.886,15.536-19.864l16.4-16.408l16.408,16.408
			c5.97,5.974,11.205,12.64,15.592,19.856c-0.088,0.04-0.168,0.104-0.248,0.152c-3.231,1.629-6.333,3.501-9.28,5.6
			c-0.752,0.536-1.408,1.168-2.128,1.728c-2.128,1.612-4.166,3.34-6.104,5.176c-0.952,0.92-1.8,1.92-2.696,2.888
			C419.656,140.096,418.152,141.776,416.768,143.576z"/>
	</g>
</g>
<g>
</g>
<g>
</g>
<g>
</g>
<g>
</g>
<g>
</g>
<g>
</g>
<g>
</g>
<g>
</g>
<g>
</g>
<g>
</g>
<g>
</g>
<g>
</g>
<g>
</g>
<g>
</g>
<g>
</g>
</svg>
