<?xml version="1.0" encoding="iso-8859-1"?>
<!-- Generator: Adobe Illustrator 19.0.0, SVG Export Plug-In . SVG Version: 6.00 Build 0)  -->
<svg version="1.1" id="Layer_1" xmlns="http://www.w3.org/2000/svg" xmlns:xlink="http://www.w3.org/1999/xlink" x="0px" y="0px"
	 viewBox="0 0 463.015 463.015" style="enable-background:new 0 0 463.015 463.015;" xml:space="preserve">
<g>
	<g>
		<g>
			<path d="M275.166,41.921c-12.958,0-23.5,10.542-23.5,23.5s10.542,23.5,23.5,23.5s23.5-10.542,23.5-23.5
				S288.124,41.921,275.166,41.921z M275.166,73.921c-4.687,0-8.5-3.813-8.5-8.5c0-4.687,3.813-8.5,8.5-8.5s8.5,3.813,8.5,8.5
				C283.666,70.108,279.853,73.921,275.166,73.921z"/>
			<path d="M332.989,43.919l-11.668-5.145l1.378-12.678c1.021-9.395-3.428-18.167-11.613-22.892
				c-8.184-4.725-18.006-4.193-25.631,1.39l-10.29,7.533l-10.29-7.533c-7.626-5.583-17.447-6.115-25.631-1.39
				c-8.185,4.726-12.634,13.498-11.612,22.892l1.378,12.678l-11.668,5.145c-8.647,3.813-14.019,12.052-14.019,21.502
				c0,9.451,5.372,17.69,14.019,21.502l6.072,2.677c-5.754,6.879-10.594,14.397-14.656,22.308
				c-6.76-23.027-28.066-39.894-53.251-39.894c-4.142,0-7.5,3.358-7.5,7.5c0,29.186,22.65,53.165,51.293,55.324
				c-2.832,8.68-4.984,17.522-6.62,26.25c-13.537-24.272-39.463-40.732-69.173-40.732c-4.142,0-7.5,3.358-7.5,7.5
				c0,41.195,31.636,75.126,71.887,78.811c-0.356,9.781-0.321,18.448-0.271,25.348h-32.115c-4.142,0-7.5,3.358-7.5,7.5
				c0,4.142,3.358,7.5,7.5,7.5h0.5v74.2c0,5.588-2.437,10.656-6.519,13.558c-20.965,14.902-33.481,39.104-33.481,64.742
				c0,20.1,7.537,39.288,21.222,54.031c5.586,6.018,13.793,9.469,22.515,9.469h71.525c8.723,0,16.929-3.452,22.515-9.469
				c13.686-14.743,21.222-33.931,21.222-54.031c0-25.638-12.516-49.84-33.481-64.742c-4.082-2.902-6.519-7.97-6.519-13.558v-74.2
				h0.5c4.142,0,7.5-3.358,7.5-7.5c0-4.142-3.358-7.5-7.5-7.5h-32.884c-0.05-6.894-0.085-15.664,0.296-25.553
				c26.944-3.785,47.746-26.976,47.746-54.947c0-4.142-3.358-7.5-7.5-7.5c-12.834,0-24.654,4.391-34.065,11.732
				c3.701-16.303,9.48-32.515,18.473-46.507c0.59,7.63,4.811,14.437,11.671,18.398c3.711,2.143,7.758,3.204,11.785,3.204
				c4.854,0,9.678-1.543,13.846-4.594l10.29-7.532l10.29,7.532c7.625,5.582,17.446,6.114,25.631,1.39
				c8.185-4.725,12.634-13.497,11.613-22.893l-1.378-12.677l11.668-5.146c8.647-3.813,14.019-12.052,14.019-21.502
				C347.008,55.971,341.636,47.731,332.989,43.919z M163.877,87.885c15.63,3.296,27.965,15.631,31.261,31.261
				C179.508,115.85,167.173,103.515,163.877,87.885z M131.503,135.853c28.997,3.621,52.046,26.67,55.667,55.667
				C158.174,187.898,135.124,164.849,131.503,135.853z M220.008,247.015v74.2c0,10.435,4.795,20.074,12.828,25.784
				c17.014,12.094,27.171,31.726,27.171,52.517c0,16.302-6.114,31.866-17.216,43.826c-2.757,2.971-6.957,4.674-11.521,4.674h-71.525
				c-4.564,0-8.764-1.704-11.522-4.674c-11.102-11.959-17.215-27.523-17.215-43.826c0-20.791,10.158-40.423,27.171-52.517
				c8.033-5.709,12.829-15.349,12.829-25.784v-74.2H220.008z M234.796,159.885c-3.274,15.526-15.471,27.791-30.954,31.184
				c0.048-0.582,0.098-1.166,0.15-1.751C207.836,174.564,219.784,163.05,234.796,159.885z M326.937,73.199l-16.692,7.36
				c-2.991,1.319-4.784,4.423-4.43,7.673l1.972,18.135c0.556,5.112-3.075,7.63-4.201,8.281c-1.126,0.649-5.123,2.534-9.271-0.503
				l-14.72-10.775c-2.638-1.932-6.223-1.932-8.86,0l-14.72,10.775c-4.149,3.038-8.145,1.153-9.271,0.502
				c-1.126-0.65-4.756-3.168-4.2-8.28l1.972-18.135c0.354-3.25-1.439-6.354-4.43-7.673l-16.692-7.36
				c-4.705-2.075-5.071-6.478-5.071-7.778c0-1.3,0.366-5.703,5.071-7.777l16.692-7.36c2.991-1.319,4.784-4.423,4.43-7.673
				l-1.972-18.136c-0.556-5.112,3.074-7.63,4.2-8.28c0.655-0.379,2.284-1.176,4.351-1.176c1.481,0,3.188,0.41,4.92,1.679
				l14.72,10.776c2.638,1.931,6.223,1.931,8.86,0l14.72-10.776c4.15-3.038,8.146-1.152,9.271-0.503
				c1.126,0.65,4.756,3.168,4.201,8.28l-1.972,18.136c-0.354,3.25,1.439,6.354,4.43,7.673l16.692,7.36
				c4.705,2.075,5.071,6.478,5.071,7.777C332.008,66.721,331.642,71.124,326.937,73.199z"/>
			<path d="M208.488,369.709c2.311,1.008,4.509,2.291,6.533,3.813c1.351,1.016,2.933,1.506,4.501,1.506c2.277,0,4.527-1.033,6-2.993
				c2.489-3.311,1.823-8.013-1.487-10.502c-2.957-2.223-6.169-4.098-9.549-5.572c-3.796-1.657-8.216,0.078-9.873,3.874
				C202.956,363.632,204.691,368.052,208.488,369.709z"/>
			<path d="M228.008,399.515c0,7.099-2.246,13.841-6.495,19.497c-2.488,3.312-1.82,8.013,1.492,10.501
				c1.351,1.014,2.931,1.504,4.499,1.504c2.278,0,4.529-1.034,6.002-2.996c6.216-8.275,9.502-18.132,9.502-28.507
				c0-3.214-0.324-6.429-0.963-9.555c-0.829-4.058-4.787-6.676-8.85-5.846c-4.058,0.83-6.676,4.792-5.846,8.85
				C227.786,395.104,228.008,397.308,228.008,399.515z"/>
		</g>
	</g>
</g>
<g>
</g>
<g>
</g>
<g>
</g>
<g>
</g>
<g>
</g>
<g>
</g>
<g>
</g>
<g>
</g>
<g>
</g>
<g>
</g>
<g>
</g>
<g>
</g>
<g>
</g>
<g>
</g>
<g>
</g>
</svg>
