<?xml version="1.0" encoding="iso-8859-1"?>
<!-- Generator: Adobe Illustrator 17.1.0, SVG Export Plug-In . SVG Version: 6.00 Build 0)  -->
<!DOCTYPE svg PUBLIC "-//W3C//DTD SVG 1.1//EN" "http://www.w3.org/Graphics/SVG/1.1/DTD/svg11.dtd">
<svg version="1.1" id="Capa_1" xmlns="http://www.w3.org/2000/svg" xmlns:xlink="http://www.w3.org/1999/xlink" x="0px" y="0px"
	 viewBox="0 0 192.271 192.271" style="enable-background:new 0 0 192.271 192.271;" xml:space="preserve">
<path d="M173.872,192.271H18.398C8.253,192.271,0,184.017,0,173.872V18.399C0,8.254,8.253,0,18.398,0h155.474
	c10.145,0,18.399,8.254,18.399,18.398v155.474C192.271,184.017,184.017,192.271,173.872,192.271z M18.398,6
	C11.562,6,6,11.562,6,18.399v155.474c0,6.837,5.562,12.398,12.398,12.398h155.474c6.837,0,12.399-5.562,12.399-12.398V18.399
	c0-6.837-5.562-12.398-12.399-12.398H18.398z M167.742,179.641H24.529c-6.561,0-11.898-5.338-11.898-11.899V24.529
	c0-6.561,5.337-11.898,11.898-11.898h143.213c6.561,0,11.898,5.338,11.898,11.898v143.213
	C179.641,174.303,174.303,179.641,167.742,179.641z M24.529,18.63c-3.252,0-5.898,2.646-5.898,5.898v143.213
	c0,3.253,2.646,5.899,5.898,5.899h143.213c3.252,0,5.898-2.646,5.898-5.899V24.529c0-3.252-2.646-5.898-5.898-5.898H24.529z
	 M76.654,158.577H62.685c-1.657,0-3-1.343-3-3V36.694c0-1.657,1.343-3,3-3h13.969c19.958,0,61.489,0,61.489,43.385
	c0,17.994-6.162,30.492-18.313,37.148c-10.074,5.518-22.602,6.278-34.638,6.278c-0.001,0,0,0-0.002,0
	c-1.542,0-3.054-0.011-4.524-0.021c-0.339-0.003-0.677-0.005-1.011-0.008v35.102C79.654,157.235,78.311,158.577,76.654,158.577z
	 M65.685,152.577h7.969v-35.114c0-1.657,1.343-3,3-3c1.308,0,2.663,0.01,4.056,0.021c1.456,0.011,2.954,0.021,4.48,0.021
	c0,0,0.001,0,0.002,0c11.239,0,22.864-0.671,31.755-5.541c10.225-5.601,15.196-16.03,15.196-31.886
	c0-34.496-28.643-37.385-55.489-37.385H65.685V152.577z M87.168,108.426c-0.001,0-0.002,0-0.003,0c-1.937,0-3.841-0.031-5.677-0.062
	c-1.678-0.027-3.299-0.055-4.834-0.055c-1.657,0-3-1.343-3-3V51.406c0-1.657,1.343-3,3-3l2.353-0.001
	c16.222,0,46.416,0,46.416,29.953c0,12.202-4.388,20.771-13.042,25.465C104.907,107.879,95.442,108.426,87.168,108.426z
	 M79.654,102.335c0.635,0.009,1.28,0.02,1.934,0.03c1.804,0.03,3.675,0.061,5.578,0.061c0.001,0,0.002,0,0.003,0
	c7.52,0,16.056-0.46,22.351-3.876c6.664-3.615,9.903-10.22,9.903-20.191c0-21.87-19.547-23.912-39.769-23.953V102.335z"/>
<g>
</g>
<g>
</g>
<g>
</g>
<g>
</g>
<g>
</g>
<g>
</g>
<g>
</g>
<g>
</g>
<g>
</g>
<g>
</g>
<g>
</g>
<g>
</g>
<g>
</g>
<g>
</g>
<g>
</g>
</svg>
