<?xml version="1.0" encoding="iso-8859-1"?>
<!-- Generator: Adobe Illustrator 19.0.0, SVG Export Plug-In . SVG Version: 6.00 Build 0)  -->
<svg version="1.1" id="Capa_1" xmlns="http://www.w3.org/2000/svg" xmlns:xlink="http://www.w3.org/1999/xlink" x="0px" y="0px"
	 viewBox="0 0 480 480" style="enable-background:new 0 0 480 480;" xml:space="preserve">
<g>
	<g>
		<g>
			<path d="M376,40V16c0-4.418-3.582-8-8-8H232c0-4.418-3.582-8-8-8h-32c-4.418,0-8,3.582-8,8v24H88c-4.418,0-8,3.582-8,8
				c0.031,28.698,14.067,55.575,37.6,72h-10.088c-13.255,0.012-23.991,10.766-23.979,24.021c0.001,1.575,0.158,3.147,0.467,4.691
				l9.6,48c0.966,4.718,3.343,9.032,6.816,12.368c-3.121,3.848-4.961,8.575-5.264,13.52l-14.12,240
				c-0.773,13.232,9.327,24.586,22.559,25.359c0.458,0.027,0.918,0.04,1.377,0.041h206.064
				c13.255-0.004,23.997-10.752,23.993-24.007c0-0.467-0.014-0.935-0.041-1.401l-14.12-240c-0.3-4.946-2.141-9.673-5.264-13.52
				c3.472-3.338,5.849-7.65,6.816-12.368l9.6-48c2.598-12.998-5.833-25.641-18.831-28.238c-1.547-0.309-3.12-0.465-4.698-0.466
				H298.44c23.518-16.434,37.538-43.309,37.56-72c0-4.418-3.582-8-8-8h-96v-8h128v24c0,4.418,3.582,8,8,8h32V40H376z M200,16h16v16
				h-16V16z M319.016,455.536c0.144,2.2-0.643,4.36-2.168,5.952c-1.503,1.613-3.612,2.524-5.816,2.512H104.968
				c-4.418,0.008-8.006-3.568-8.014-7.986c0-0.162,0.004-0.324,0.014-0.486L109.664,240h196.672L319.016,455.536z M110.6,224
				l0.504-8.48c0.254-4.224,3.753-7.519,7.984-7.52h177.824c4.24-0.007,7.75,3.295,8,7.528L305.4,224H110.6z M308.488,128
				c4.418-0.001,8.001,3.58,8.002,7.998c0,0.538-0.054,1.075-0.162,1.602l-9.6,48c-0.761,3.728-4.043,6.405-7.848,6.4H117.12
				c-3.805,0.005-7.087-2.672-7.848-6.4l-9.6-48c-0.884-4.329,1.909-8.555,6.238-9.438c0.527-0.108,1.064-0.162,1.602-0.162H308.488
				z M319.552,48c-4.116,36.419-34.901,63.955-71.552,64h-80c-36.651-0.045-67.436-27.581-71.552-64H319.552z"/>
			<path d="M208,312c-41.048,0-72,17.192-72,40c0,22.808,30.952,40,72,40c41.048,0,72-17.192,72-40C280,329.192,249.048,312,208,312
				z M208,376c-28.512,0-50.56-10.024-55.096-20.216c3.106,0.793,6.11,1.942,8.952,3.424c15.593,7.886,34.007,7.886,49.6,0
				c11.219-5.771,24.533-5.771,35.752,0c3.085,1.564,6.296,2.865,9.6,3.888C242.231,372.265,225.203,376.766,208,376z
				 M254.128,344.792c-15.595-7.88-34.005-7.88-49.6,0c-11.213,5.771-24.523,5.771-35.736,0c-3.068-1.565-6.263-2.866-9.552-3.888
				c14.564-9.156,31.573-13.657,48.76-12.904c28.512,0,50.568,10.024,55.096,20.216
				C259.984,347.427,256.974,346.278,254.128,344.792z"/>
		</g>
	</g>
</g>
<g>
</g>
<g>
</g>
<g>
</g>
<g>
</g>
<g>
</g>
<g>
</g>
<g>
</g>
<g>
</g>
<g>
</g>
<g>
</g>
<g>
</g>
<g>
</g>
<g>
</g>
<g>
</g>
<g>
</g>
</svg>
