<?xml version="1.0" encoding="iso-8859-1"?>
<!-- Generator: Adobe Illustrator 19.0.0, SVG Export Plug-In . SVG Version: 6.00 Build 0)  -->
<svg version="1.1" id="Capa_1" xmlns="http://www.w3.org/2000/svg" xmlns:xlink="http://www.w3.org/1999/xlink" x="0px" y="0px"
	 viewBox="0 0 480 480" style="enable-background:new 0 0 480 480;" xml:space="preserve">
<g>
	<g>
		<path d="M376,48v-8c-0.026-22.08-17.92-39.974-40-40H144c-22.08,0.026-39.974,17.92-40,40v8c-13.255,0-24,10.745-24,24
			s10.745,24,24,24h16.328l6.4,152.264c-3.843,0.568-6.699,3.852-6.728,7.736v64c0,4.418,3.582,8,8,8h2.008l5.36,128.944
			c0.458,12.907,11.085,23.116,24,23.056H320.64c12.905,0.065,23.529-10.128,24-23.024L349.992,328H352c4.418,0,8-3.582,8-8v-64
			c-0.029-3.849-2.832-7.115-6.632-7.728L359.672,96H376c13.255,0,24-10.745,24-24S389.255,48,376,48z M120,40
			c0-13.255,10.745-24,24-24h192c13.255,0,24,10.745,24,24v8H120V40z M328.648,456.336c-0.212,4.272-3.723,7.635-8,7.664H159.36
			c-4.286-0.029-7.8-3.406-8-7.688L146.016,328h188L328.648,456.336z M344,312H136v-48h208V312z M136.312,96h207.352l-6.296,152
			H142.712L136.312,96z M376,80H104c-4.418,0-8-3.582-8-8s3.582-8,8-8h272c4.418,0,8,3.582,8,8S380.418,80,376,80z"/>
	</g>
</g>
<g>
</g>
<g>
</g>
<g>
</g>
<g>
</g>
<g>
</g>
<g>
</g>
<g>
</g>
<g>
</g>
<g>
</g>
<g>
</g>
<g>
</g>
<g>
</g>
<g>
</g>
<g>
</g>
<g>
</g>
</svg>
