<?xml version="1.0" encoding="iso-8859-1"?>
<!-- Generator: Adobe Illustrator 19.0.0, SVG Export Plug-In . SVG Version: 6.00 Build 0)  -->
<svg version="1.1" id="Capa_1" xmlns="http://www.w3.org/2000/svg" xmlns:xlink="http://www.w3.org/1999/xlink" x="0px" y="0px"
	 viewBox="0 0 512 512" style="enable-background:new 0 0 512 512;" xml:space="preserve">
<g>
	<g>
		<g>
			<path d="M400,72h-24.8L368,7.12c-0.451-4.071-3.904-7.145-8-7.12H152c-4.078,0-7.503,3.067-7.952,7.12L136.84,72H112
				c-4.418,0-8,3.582-8,8v40c0,4.418,3.582,8,8,8h24.168l1.504,72H128c-4.418,0-8,3.582-8,8v152c0,4.418,3.582,8,8,8h13.2
				l2.8,136.168c0.091,4.353,3.646,7.833,8,7.832h208c4.354,0.001,7.909-3.479,8-7.832L370.872,368H384c4.418,0,8-3.582,8-8V208
				c0-4.418-3.582-8-8-8h-9.672l1.504-72H400c4.418,0,8-3.582,8-8V80C408,75.582,404.418,72,400,72z M159.2,16h193.68l6.224,56
				H152.936L159.2,16z M352.168,496H159.832l-2.624-128h197.656L352.168,496z M376,216v136H136V216H376z M152.168,128h207.664
				l-1.504,72H153.672L152.168,128z M392,112H120V88h272V112z"/>
			<path d="M336,336h16c4.418,0,8-3.582,8-8v-24c0-4.418-3.582-8-8-8s-8,3.582-8,8v16h-8c-4.418,0-8,3.582-8,8S331.582,336,336,336z
				"/>
			<path d="M296,336h16c4.418,0,8-3.582,8-8s-3.582-8-8-8h-16c-4.418,0-8,3.582-8,8S291.582,336,296,336z"/>
		</g>
	</g>
</g>
<g>
</g>
<g>
</g>
<g>
</g>
<g>
</g>
<g>
</g>
<g>
</g>
<g>
</g>
<g>
</g>
<g>
</g>
<g>
</g>
<g>
</g>
<g>
</g>
<g>
</g>
<g>
</g>
<g>
</g>
</svg>
