<?xml version="1.0" encoding="iso-8859-1"?>
<!-- Generator: Adobe Illustrator 19.0.0, SVG Export Plug-In . SVG Version: 6.00 Build 0)  -->
<svg version="1.1" id="Capa_1" xmlns="http://www.w3.org/2000/svg" xmlns:xlink="http://www.w3.org/1999/xlink" x="0px" y="0px"
	 viewBox="0 0 480 480" style="enable-background:new 0 0 480 480;" xml:space="preserve">
<g>
	<g>
		<path d="M376,64H104c-13.255,0-24,10.745-24,24c0,0.24,0.04,0.52,0.04,0.8l38.496,369.688
			c1.249,12.235,11.565,21.535,23.864,21.512h195.2c12.293,0.014,22.599-9.283,23.848-21.512L399.96,88.8
			C400,88.552,400,88.272,400,88C400,74.745,389.255,64,376,64z M345.552,456.8c-0.411,4.085-3.846,7.196-7.952,7.2H142.416
			c-4.105-0.004-7.541-3.115-7.952-7.2L96,87.656c0.184-4.283,3.713-7.66,8-7.656h272c4.287-0.004,7.816,3.373,8,7.656
			L345.552,456.8z"/>
	</g>
</g>
<g>
	<g>
		<path d="M392,32h-88.8C299.373,13.389,283.001,0.024,264,0h-48c-19.001,0.024-35.373,13.389-39.2,32H88
			c-22.08,0.026-39.974,17.92-40,40c0,4.418,3.582,8,8,8s8-3.582,8-8c0-13.255,10.745-24,24-24h304c13.255,0,24,10.745,24,24
			c0,4.418,3.582,8,8,8s8-3.582,8-8C431.974,49.92,414.08,32.026,392,32z M193.368,32c3.403-9.582,12.464-15.988,22.632-16h48
			c10.168,0.012,19.229,6.418,22.632,16H193.368z"/>
	</g>
</g>
<g>
	<g>
		<path d="M240,112c-4.418,0-8,3.582-8,8v304c0,4.418,3.582,8,8,8s8-3.582,8-8V120C248,115.582,244.418,112,240,112z"/>
	</g>
</g>
<g>
	<g>
		<path d="M208,423.576l-16-304c-0.234-4.418-4.006-7.81-8.424-7.576s-7.81,4.006-7.576,8.424l16,304
			c0.226,4.252,3.742,7.582,8,7.576h0.424c0.008,0,0.015-0.001,0.022-0.001C204.858,431.759,208.24,427.988,208,423.576z"/>
	</g>
</g>
<g>
	<g>
		<path d="M296.424,112c-4.4-0.183-8.141,3.181-8.424,7.576l-16,304c0,0.005-0.001,0.01-0.001,0.015
			c-0.232,4.412,3.157,8.177,7.569,8.409H280c4.258,0.006,7.774-3.324,8-7.576l16-304c0-0.008,0.001-0.015,0.001-0.022
			C304.229,115.989,300.836,112.228,296.424,112z"/>
	</g>
</g>
<g>
</g>
<g>
</g>
<g>
</g>
<g>
</g>
<g>
</g>
<g>
</g>
<g>
</g>
<g>
</g>
<g>
</g>
<g>
</g>
<g>
</g>
<g>
</g>
<g>
</g>
<g>
</g>
<g>
</g>
</svg>
