<?xml version="1.0" encoding="iso-8859-1"?>
<!-- Generator: Adobe Illustrator 18.0.0, SVG Export Plug-In . SVG Version: 6.00 Build 0)  -->
<!DOCTYPE svg PUBLIC "-//W3C//DTD SVG 1.1//EN" "http://www.w3.org/Graphics/SVG/1.1/DTD/svg11.dtd">
<svg version="1.1" id="Capa_1" xmlns="http://www.w3.org/2000/svg" xmlns:xlink="http://www.w3.org/1999/xlink" x="0px" y="0px"
	 viewBox="0 0 57.001 57.001" style="enable-background:new 0 0 57.001 57.001;" xml:space="preserve">
<g>
	<path d="M17.591,6.303c-0.391-0.391-1.023-0.391-1.414,0l-11,11c-0.391,0.391-0.391,1.023,0,1.414
		c0.195,0.195,0.451,0.293,0.707,0.293s0.512-0.098,0.707-0.293l11-11C17.982,7.326,17.982,6.693,17.591,6.303z"/>
	<path d="M24.091,9.803c-0.391-0.391-1.023-0.391-1.414,0l-15,15c-0.391,0.391-0.391,1.023,0,1.414
		c0.195,0.195,0.451,0.293,0.707,0.293s0.512-0.098,0.707-0.293l15-15C24.482,10.826,24.482,10.193,24.091,9.803z"/>
	<path d="M40.591,44.303c-0.391-0.391-1.023-0.391-1.414,0l-6,6c-0.391,0.391-0.391,1.023,0,1.414
		c0.195,0.195,0.451,0.293,0.707,0.293s0.512-0.098,0.707-0.293l6-6C40.982,45.326,40.982,44.693,40.591,44.303z"/>
	<path d="M40.591,34.303c-0.391-0.391-1.023-0.391-1.414,0l-15,15c-0.391,0.391-0.391,1.023,0,1.414
		c0.195,0.195,0.451,0.293,0.707,0.293s0.512-0.098,0.707-0.293l15-15C40.982,35.326,40.982,34.693,40.591,34.303z"/>
	<path d="M12.091,33.217l25-25c0.391-0.391,0.391-1.023,0-1.414s-1.023-0.391-1.414,0l-25,25c-0.391,0.391-0.391,1.023,0,1.414
		c0.195,0.195,0.451,0.293,0.707,0.293S11.896,33.412,12.091,33.217z"/>
	<path d="M44.591,10.303c-0.391-0.391-1.023-0.391-1.414,0l-32,32c-0.391,0.391-0.391,1.023,0,1.414
		c0.195,0.195,0.451,0.293,0.707,0.293s0.512-0.098,0.707-0.293l32-32C44.982,11.326,44.982,10.693,44.591,10.303z"/>
	<path d="M47.591,17.303c-0.391-0.391-1.023-0.391-1.414,0l-32,32c-0.391,0.391-0.391,1.023,0,1.414
		c0.195,0.195,0.451,0.293,0.707,0.293s0.512-0.098,0.707-0.293l32-32C47.982,18.326,47.982,17.693,47.591,17.303z"/>
	<path d="M56.784,15.513c-1.122-6.967-6.583-12.324-13.59-13.332c-1.452-0.208-2.935-0.215-4.409-0.028
		c-2.053-0.26-4.09-0.147-6.058,0.354c-4.112,1.046-8.458,1.046-12.57-0.001c-2.062-0.524-4.198-0.634-6.349-0.325
		C6.872,3.177,1.421,8.467,0.244,15.344c-0.889,5.195,0.673,10.323,4.285,14.069c2.095,2.173,3.249,4.933,3.249,7.771v11.393
		c0,3.537,2.878,6.415,6.415,6.415h24.051h4.116c3.538,0,6.416-2.878,6.416-6.415v-10.95c0-2.921,1.233-5.758,3.471-7.989
		C55.977,25.919,57.631,20.772,56.784,15.513z M9.778,48.576V37.184c0-3.358-1.353-6.611-3.809-9.159
		c-3.166-3.283-4.534-7.782-3.753-12.343C3.246,9.663,8.018,5.033,14.092,4.161c0.701-0.102,1.399-0.151,2.093-0.151
		c1.178,0,2.341,0.145,3.478,0.434c4.433,1.129,9.121,1.13,13.556,0.001c1.766-0.449,3.596-0.544,5.445-0.295
		c0.002,0,0.003,0.001,0.005,0.001l0.124,0.011c6.136,0.882,10.918,5.571,11.9,11.67c0.744,4.615-0.705,9.131-3.975,12.39
		c-0.654,0.652-1.235,1.35-1.739,2.084c-1.51,2.202-2.321,4.729-2.321,7.321v0.001v10.949c0,2.435-1.98,4.415-4.415,4.415H14.193
		C11.758,52.991,9.778,51.011,9.778,48.576z M50.835,28.221c-2.618,2.609-4.059,5.949-4.059,9.405v10.95
		c0,2.242-1.68,4.099-3.847,4.379c0.049-0.053,0.093-0.111,0.141-0.165c0.06-0.068,0.12-0.136,0.177-0.207
		c0.069-0.087,0.134-0.177,0.199-0.267c0.053-0.073,0.107-0.146,0.156-0.221c0.062-0.094,0.119-0.192,0.176-0.29
		c0.045-0.077,0.091-0.152,0.133-0.231c0.054-0.102,0.102-0.208,0.151-0.313c0.037-0.08,0.076-0.158,0.11-0.239
		c0.045-0.109,0.083-0.222,0.123-0.334c0.029-0.082,0.06-0.161,0.085-0.244c0.036-0.12,0.065-0.242,0.094-0.365
		c0.019-0.079,0.042-0.157,0.058-0.238c0.028-0.139,0.046-0.281,0.065-0.423c0.009-0.067,0.023-0.133,0.029-0.201
		c0.021-0.211,0.033-0.425,0.033-0.642V37.627c0-1.826,0.482-3.619,1.389-5.252c0.545-0.98,1.243-1.902,2.082-2.739
		c3.73-3.718,5.384-8.866,4.537-14.124c-0.08-0.496-0.188-0.982-0.311-1.461c-0.038-0.148-0.084-0.292-0.126-0.439
		c-0.095-0.333-0.199-0.661-0.314-0.983c-0.057-0.159-0.116-0.316-0.178-0.472c-0.125-0.317-0.261-0.628-0.405-0.935
		c-0.063-0.135-0.123-0.271-0.19-0.405c-0.203-0.402-0.419-0.795-0.654-1.177c-0.016-0.026-0.029-0.053-0.045-0.079
		c-0.255-0.41-0.532-0.804-0.822-1.188c-0.078-0.103-0.162-0.2-0.242-0.301c-0.22-0.276-0.446-0.546-0.684-0.806
		c-0.104-0.114-0.21-0.225-0.317-0.336c-0.238-0.247-0.484-0.484-0.737-0.715c-0.104-0.095-0.206-0.191-0.312-0.283
		C47,5.647,46.659,5.374,46.306,5.117c-0.028-0.02-0.052-0.044-0.08-0.064c4.491,1.813,7.787,5.832,8.583,10.778
		C55.553,20.446,54.104,24.962,50.835,28.221z"/>
</g>
<g>
</g>
<g>
</g>
<g>
</g>
<g>
</g>
<g>
</g>
<g>
</g>
<g>
</g>
<g>
</g>
<g>
</g>
<g>
</g>
<g>
</g>
<g>
</g>
<g>
</g>
<g>
</g>
<g>
</g>
</svg>
