<?xml version="1.0" encoding="iso-8859-1"?>
<!-- Generator: Adobe Illustrator 18.0.0, SVG Export Plug-In . SVG Version: 6.00 Build 0)  -->
<!DOCTYPE svg PUBLIC "-//W3C//DTD SVG 1.1//EN" "http://www.w3.org/Graphics/SVG/1.1/DTD/svg11.dtd">
<svg version="1.1" id="Capa_1" xmlns="http://www.w3.org/2000/svg" xmlns:xlink="http://www.w3.org/1999/xlink" x="0px" y="0px"
	 viewBox="0 0 58.003 58.003" style="enable-background:new 0 0 58.003 58.003;" xml:space="preserve">
<path d="M57.597,35.81c-1.386-3.718-3.689-7.19-6.661-10.085c0.258-2.202-0.754-4.317-2.969-5.926h0
	c-3.204-2.326-7.538-3.773-10.646-3.606c-0.09-0.131-0.183-0.26-0.286-0.382c-0.645-0.771-1.495-1.315-2.435-1.594
	c0,0-1.221-0.216-1.44-0.216c0,0-9.569,0.013-9.641,0.018l-1.047,0.179c-0.967,0.273-1.842,0.823-2.503,1.613
	c-0.1,0.12-0.191,0.245-0.279,0.373c-3.093-0.112-7.379,1.34-10.512,3.616c-2.464,1.789-3.446,4.204-2.841,6.669
	c-2.651,2.769-4.65,5.905-5.931,9.342c-0.836,2.242-0.362,4.704,1.237,6.424c1.072,1.152,2.475,1.768,3.934,1.768
	c0.498,0,1.003-0.071,1.503-0.218l10.617-3.107c1.951,1.516,3.866,2.473,5.609,2.473c0.424,0,0.838-0.056,1.24-0.173
	c0.328-0.034,0.648-0.113,0.963-0.22c0.777,0.773,1.838,1.245,2.991,1.245c1.172,0,2.252-0.486,3.033-1.283
	c0.345,0.127,0.698,0.22,1.062,0.258c0.402,0.117,0.815,0.173,1.239,0.173c1.813,0,3.813-1.028,5.846-2.654l11.24,3.288
	c0.5,0.146,1.005,0.218,1.503,0.218c1.459,0,2.862-0.615,3.934-1.768C57.959,40.514,58.433,38.053,57.597,35.81z M31.985,16.002
	l-1.311,4.952c-0.261,0.985-1.154,1.673-2.173,1.673s-1.912-0.688-2.173-1.673l-1.311-4.952H31.985z M15.88,39.125l-9.36,2.739
	c-1.244,0.364-2.486,0.003-3.412-0.992c-0.847-0.91-1.509-2.535-0.828-4.362c1.089-2.922,2.737-5.617,4.906-8.029
	c0.093,0.154,0.192,0.309,0.298,0.461c0.268,0.388,0.55,0.792,0.846,1.207c1.919,2.698,4.08,5.447,6.286,7.725
	c0.062,0.064,0.123,0.126,0.185,0.189c0.285,0.291,0.571,0.573,0.857,0.846C15.733,38.978,15.806,39.055,15.88,39.125z
	 M24.276,40.993l-0.229,0.045c-1.273,0.414-3.035-0.275-5.135-1.925l-0.376-0.31c-1.719-1.415-3.459-3.284-5.068-5.227
	c-0.055-0.067-0.111-0.137-0.167-0.204c-0.331-0.403-0.656-0.808-0.973-1.213c-0.102-0.131-0.206-0.265-0.308-0.398
	c-0.265-0.343-0.527-0.685-0.78-1.023c-0.165-0.22-0.331-0.447-0.497-0.674c-0.189-0.258-0.38-0.516-0.56-0.767
	c-0.349-0.486-0.699-0.98-1.053-1.493c-0.184-0.267-0.334-0.533-0.464-0.799c-0.038-0.078-0.067-0.156-0.101-0.234
	c-0.852-1.971-0.242-3.879,1.789-5.353c2.51-1.824,5.934-3.099,8.516-3.248c-0.004,0.026-0.002,0.053-0.006,0.079
	c-0.038,0.241-0.057,0.486-0.06,0.735c-0.001,0.074,0.002,0.148,0.004,0.222c0.008,0.27,0.029,0.541,0.078,0.815
	c0,0.001,0,0.002,0,0.004l5.509,20.815c0.012,0.045,0.025,0.09,0.038,0.135C24.381,40.983,24.329,40.989,24.276,40.993z
	 M26.642,41.015l-0.013-0.019c-0.068-0.104-0.128-0.211-0.178-0.322c-0.049-0.11-0.091-0.225-0.123-0.345l-5.492-20.736
	c-0.036-0.201-0.045-0.402-0.04-0.602c0.001-0.059,0.007-0.117,0.012-0.176c0.011-0.143,0.034-0.284,0.065-0.423
	c0.015-0.064,0.027-0.128,0.045-0.191c0.046-0.157,0.106-0.31,0.178-0.459c0.013-0.026,0.02-0.054,0.033-0.08l0.018-0.034
	c0.099-0.188,0.216-0.367,0.355-0.533c0.392-0.468,0.912-0.787,1.483-0.955l1.41,5.325c0.493,1.861,2.181,3.161,4.106,3.161
	s3.614-1.3,4.106-3.161l1.409-5.326c0.571,0.168,1.092,0.487,1.484,0.956c0.133,0.159,0.243,0.332,0.341,0.509l0.038,0.075
	c0.039,0.077,0.066,0.157,0.098,0.236c0.034,0.083,0.072,0.164,0.098,0.249c0.03,0.095,0.049,0.191,0.07,0.287
	c0.02,0.097,0.038,0.194,0.049,0.292c0.009,0.08,0.017,0.159,0.019,0.237c0.004,0.179,0,0.359-0.03,0.532l-5.509,20.816
	c-0.056,0.21-0.148,0.418-0.276,0.62l-0.061,0.096c-0.412,0.585-1.089,0.957-1.836,0.957C27.742,42.002,27.052,41.618,26.642,41.015
	z M33.097,41.038l-0.23-0.045c-0.097-0.008-0.194-0.021-0.29-0.041c0.011-0.037,0.021-0.074,0.031-0.111l5.527-20.896
	c0-0.001,0-0.002,0-0.003c0.047-0.265,0.066-0.529,0.071-0.793c0.001-0.055,0.003-0.109,0.002-0.163
	c-0.003-0.264-0.026-0.526-0.07-0.785c-0.001-0.008-0.001-0.017-0.002-0.025c2.384,0.116,5.875,1.224,8.656,3.243h0
	c1.766,1.283,2.462,2.893,2.055,4.587c-0.012,0.047-0.025,0.095-0.038,0.142c-0.068,0.248-0.157,0.496-0.272,0.747
	c-0.018,0.038-0.039,0.076-0.058,0.114c-0.13,0.265-0.279,0.53-0.462,0.796c-0.352,0.51-0.701,1.002-1.048,1.486
	c-0.161,0.224-0.331,0.455-0.499,0.685c-0.185,0.253-0.37,0.505-0.553,0.75c-0.218,0.291-0.442,0.584-0.668,0.879
	c-0.138,0.179-0.276,0.358-0.412,0.532c-0.259,0.331-0.523,0.661-0.791,0.991c-0.111,0.137-0.223,0.275-0.334,0.409
	c-0.296,0.358-0.597,0.712-0.901,1.063c-0.088,0.101-0.176,0.206-0.263,0.305c-0.385,0.438-0.775,0.87-1.169,1.286
	c-0.001,0.002-0.003,0.003-0.005,0.005c-0.414,0.438-0.832,0.86-1.252,1.262c-0.023,0.022-0.044,0.041-0.067,0.063
	c-0.377,0.36-0.755,0.7-1.133,1.023C36.516,40.594,34.507,41.494,33.097,41.038z M54.894,40.872
	c-0.924,0.994-2.165,1.357-3.411,0.992l-10.015-2.93c0.074-0.071,0.147-0.149,0.221-0.222c0.233-0.226,0.465-0.46,0.697-0.698
	c0.107-0.11,0.215-0.217,0.322-0.329c2.151-2.248,4.252-4.932,6.122-7.563c0.29-0.407,0.567-0.802,0.829-1.182
	c0.227-0.328,0.416-0.66,0.584-0.992c0.01-0.02,0.025-0.039,0.035-0.059c2.408,2.533,4.276,5.486,5.444,8.619
	C56.405,38.337,55.742,39.962,54.894,40.872z"/>
<g>
</g>
<g>
</g>
<g>
</g>
<g>
</g>
<g>
</g>
<g>
</g>
<g>
</g>
<g>
</g>
<g>
</g>
<g>
</g>
<g>
</g>
<g>
</g>
<g>
</g>
<g>
</g>
<g>
</g>
</svg>
