<?xml version="1.0" encoding="iso-8859-1"?>
<!-- Generator: Adobe Illustrator 19.0.0, SVG Export Plug-In . SVG Version: 6.00 Build 0)  -->
<svg version="1.1" id="Capa_1" xmlns="http://www.w3.org/2000/svg" xmlns:xlink="http://www.w3.org/1999/xlink" x="0px" y="0px"
	 viewBox="0 0 59.103 59.103" style="enable-background:new 0 0 59.103 59.103;" xml:space="preserve">
<g>
	<path d="M43.758,15.329c1.763-1.415,2.793-3.532,2.793-5.829c0-4.136-3.364-7.5-7.5-7.5c-0.713,0-1.42,0.108-2.112,0.313
		C35.016,0.868,32.637,0,30.052,0c-6.341,0-11.5,5.159-11.5,11.5c0,0.324,0.02,0.659,0.054,1.005
		c-3.518,1.224-6.054,4.565-6.054,8.495c0,4.526,3.362,8.272,7.718,8.898l-0.061,0.061l0.232,0.232l8.826,28.211
		c0.129,0.414,0.512,0.697,0.945,0.701c0.003,0,0.006,0,0.009,0c0.431,0,0.813-0.275,0.949-0.685l11.123-33.477
		c1.401-1.587,2.258-3.664,2.258-5.942C44.551,17.71,44.27,16.467,43.758,15.329z M44.551,9.5c0,1.585-0.669,3.055-1.826,4.088l0,0
		c-0.141-0.186-0.291-0.365-0.448-0.54c-0.077-0.088-0.156-0.175-0.236-0.26c-0.112-0.116-0.226-0.23-0.345-0.341
		c-0.059-0.055-0.112-0.116-0.172-0.17c0.019-0.262,0.027-0.522,0.027-0.777c0-0.373-0.021-0.742-0.056-1.109
		c-0.012-0.122-0.033-0.241-0.049-0.362c-0.031-0.243-0.065-0.485-0.111-0.725c-0.026-0.135-0.06-0.266-0.091-0.399
		c-0.052-0.224-0.107-0.447-0.172-0.667c-0.038-0.127-0.08-0.252-0.122-0.377c-0.075-0.225-0.156-0.447-0.244-0.666
		c-0.044-0.109-0.09-0.218-0.138-0.325c-0.103-0.233-0.214-0.462-0.332-0.688c-0.046-0.087-0.091-0.175-0.139-0.261
		c-0.135-0.243-0.281-0.48-0.434-0.714c-0.042-0.063-0.081-0.128-0.124-0.19c-0.172-0.251-0.356-0.495-0.548-0.733
		C38.959,4.243,38.929,4.2,38.896,4.16c-0.042-0.05-0.078-0.104-0.121-0.154C41.907,3.852,44.551,6.376,44.551,9.5z M20.552,11.5
		c0-5.238,4.262-9.5,9.5-9.5c2.453,0,4.684,0.943,6.372,2.474c0.129,0.117,0.261,0.232,0.382,0.355
		c0.122,0.123,0.234,0.255,0.349,0.384c0.101,0.113,0.202,0.226,0.297,0.344c0.11,0.137,0.213,0.279,0.316,0.422
		c0.088,0.122,0.174,0.245,0.256,0.371c0.093,0.144,0.182,0.29,0.267,0.439c0.079,0.138,0.154,0.278,0.226,0.419
		c0.074,0.145,0.145,0.29,0.212,0.439c0.071,0.159,0.134,0.322,0.196,0.484c0.053,0.139,0.107,0.277,0.154,0.42
		c0.061,0.186,0.11,0.376,0.16,0.566C39.27,9.245,39.307,9.37,39.335,9.5c0.048,0.221,0.08,0.447,0.112,0.672
		c0.015,0.105,0.037,0.208,0.048,0.314c0.036,0.335,0.056,0.673,0.056,1.014c0,0.339-0.022,0.691-0.062,1.044
		c-0.005,0.047-0.015,0.093-0.021,0.14c-0.006,0.05-0.017,0.098-0.024,0.148c0,0.001-0.001,0.002-0.001,0.003
		c-0.003,0.021-0.007,0.043-0.01,0.064c-0.018,0.122-0.036,0.244-0.059,0.364c-0.016,0.093-0.032,0.186-0.052,0.279
		c-0.005,0.023-0.012,0.046-0.017,0.07c-0.014,0.06-0.031,0.118-0.046,0.177c-0.001,0.002-0.003,0.004-0.003,0.007
		c-0.035,0.136-0.071,0.271-0.109,0.406c-0.032,0.11-0.066,0.219-0.103,0.327c-0.001,0.003,0,0.005-0.001,0.008
		c-0.015,0.043-0.03,0.085-0.045,0.128c-0.004,0.01-0.007,0.02-0.011,0.03c-0.002,0.005-0.006,0.008-0.007,0.012
		c-0.096,0.266-0.202,0.525-0.319,0.778c-0.002,0.003-0.001,0.007-0.002,0.01c-0.691,1.482-1.744,2.763-3.058,3.712
		c-0.002,0.002-0.005,0.003-0.008,0.005c-0.229,0.165-0.466,0.319-0.71,0.464c-0.041,0.024-0.085,0.046-0.126,0.07
		c-0.206,0.118-0.417,0.231-0.632,0.333c-0.073,0.035-0.149,0.065-0.223,0.098c-0.188,0.084-0.377,0.164-0.571,0.235
		c-0.101,0.037-0.204,0.069-0.306,0.103c-0.173,0.057-0.347,0.112-0.524,0.159c-0.121,0.032-0.244,0.059-0.367,0.087
		c-0.164,0.037-0.329,0.072-0.496,0.1c-0.135,0.023-0.272,0.04-0.409,0.057c-0.161,0.02-0.322,0.037-0.485,0.049
		c-0.064,0.005-0.129,0.006-0.194,0.009c0-0.16-0.016-0.317-0.025-0.475c-0.008-0.142-0.008-0.286-0.022-0.426
		c-0.017-0.164-0.049-0.324-0.074-0.485c-0.021-0.136-0.035-0.274-0.063-0.407c-0.03-0.146-0.074-0.287-0.111-0.43
		c-0.037-0.144-0.068-0.291-0.112-0.432c-0.038-0.122-0.088-0.238-0.131-0.357c-0.057-0.157-0.108-0.317-0.173-0.469
		c-0.045-0.106-0.101-0.206-0.15-0.31c-0.075-0.16-0.146-0.322-0.23-0.476c-0.047-0.086-0.103-0.167-0.153-0.251
		c-0.097-0.165-0.192-0.332-0.299-0.49c-0.042-0.063-0.092-0.12-0.136-0.181c-0.124-0.174-0.248-0.347-0.383-0.511
		c-0.036-0.043-0.077-0.082-0.114-0.125c-0.151-0.176-0.304-0.35-0.467-0.513c-0.04-0.04-0.084-0.074-0.124-0.113
		c-0.167-0.161-0.336-0.32-0.516-0.468c-0.015-0.012-0.032-0.023-0.047-0.035c-0.208-0.17-0.423-0.332-0.646-0.483
		c-0.015-0.01-0.031-0.018-0.045-0.028c-0.226-0.151-0.457-0.293-0.697-0.423c-0.001,0-0.002-0.001-0.003-0.001
		c-0.254-0.138-0.515-0.264-0.783-0.377c-0.045-0.019-0.094-0.033-0.139-0.051c-0.225-0.091-0.452-0.179-0.686-0.251
		c-0.092-0.029-0.188-0.047-0.282-0.073c-0.192-0.053-0.383-0.109-0.579-0.149c-0.218-0.045-0.442-0.073-0.666-0.102
		c-0.076-0.01-0.149-0.027-0.226-0.034C22.167,12.016,21.861,12,21.552,12c-0.332,0-0.658,0.021-0.98,0.056
		C20.559,11.866,20.552,11.68,20.552,11.5z M14.552,21c0-3.305,2.306-6.076,5.391-6.806c0.548-0.129,1.088-0.189,1.614-0.194
		c2.626,0.002,4.917,1.46,6.113,3.607c0.019,0.035,0.039,0.069,0.058,0.104c0.081,0.152,0.155,0.308,0.225,0.467
		c0.033,0.076,0.065,0.152,0.096,0.229c0.054,0.134,0.104,0.27,0.15,0.408c0.036,0.111,0.067,0.223,0.098,0.336
		c0.032,0.117,0.065,0.235,0.091,0.354c0.032,0.148,0.055,0.299,0.078,0.451c0.014,0.093,0.033,0.185,0.043,0.28
		c0.027,0.251,0.044,0.505,0.044,0.763c0,0.288-0.022,0.568-0.056,0.846c0,0.001,0,0.002,0,0.003s-0.001,0.002-0.001,0.003
		c-0.03,0.249-0.075,0.497-0.133,0.744c-0.003,0.012-0.006,0.024-0.009,0.035c-0.057,0.237-0.127,0.473-0.21,0.705
		c-0.022,0.062-0.044,0.124-0.068,0.185c-0.019,0.035-0.046,0.065-0.061,0.103c-0.665,1.636-1.884,2.912-3.384,3.654
		c-0.046,0.022-0.091,0.045-0.138,0.066c-0.559,0.261-1.156,0.446-1.777,0.551c-0.074,0.012-0.148,0.024-0.223,0.034
		C22.183,27.971,21.87,28,21.552,28c-0.096,0-0.189-0.01-0.284-0.014L21.17,27.98c-0.002,0-0.003,0.001-0.005,0.001
		C17.486,27.778,14.552,24.729,14.552,21z M30.25,54.846l-2.257-7.215l0.701-0.701l-1.34-1.34l-1.383-4.422l1.309-1.309
		l-1.414-1.414l-0.569,0.569l-1.806-5.772l0.96,0.961l1.414-1.414l-1.414-1.414l-1.177,1.177L22.6,30.398l0.437-0.437l-0.08-0.08
		c0.168-0.026,0.336-0.051,0.5-0.086c0.095-0.021,0.187-0.049,0.281-0.072c0.23-0.058,0.458-0.121,0.68-0.197
		c0.105-0.036,0.209-0.075,0.312-0.115c0.141-0.053,0.282-0.105,0.42-0.166l0.715,0.715l1.414-1.414l-0.347-0.347
		c0.975-0.731,1.796-1.651,2.409-2.71c0.027,0.026,0.056,0.047,0.083,0.073c0.145,0.136,0.291,0.27,0.444,0.396l-1.175,1.175
		l1.414,1.414l1.414-1.414l-0.2-0.2c0.044,0.024,0.086,0.049,0.13,0.072c0.035,0.018,0.072,0.032,0.108,0.05
		c0.26,0.13,0.527,0.247,0.799,0.352c0.073,0.028,0.147,0.052,0.221,0.078c0.238,0.084,0.48,0.159,0.725,0.223
		c0.088,0.023,0.175,0.045,0.263,0.065c0.242,0.055,0.486,0.099,0.733,0.133c0.086,0.012,0.172,0.028,0.259,0.038
		c0.327,0.036,0.657,0.06,0.991,0.06c0.269,0,0.535-0.017,0.798-0.041l-0.585,0.585l1.414,1.414l1.414-1.414l-0.83-0.83
		c0.244-0.062,0.485-0.132,0.721-0.214c0.044-0.016,0.088-0.032,0.133-0.049c0.269-0.098,0.532-0.208,0.788-0.33
		c0.021-0.01,0.044-0.017,0.066-0.028L30.25,54.846z M40.636,23.796c-0.133,0.142-0.273,0.275-0.415,0.404
		c-0.038,0.034-0.074,0.069-0.112,0.102c-0.127,0.11-0.26,0.212-0.393,0.312c-0.062,0.046-0.122,0.095-0.186,0.139
		c-0.104,0.073-0.213,0.138-0.321,0.204c-0.097,0.06-0.192,0.122-0.292,0.177c-0.072,0.04-0.147,0.073-0.22,0.11
		c-0.136,0.069-0.272,0.139-0.414,0.199c-0.035,0.015-0.072,0.026-0.108,0.041c-0.6,0.244-1.239,0.41-1.907,0.478
		C36.032,25.987,35.792,26,35.551,26c-0.26,0-0.517-0.015-0.772-0.044c-0.191-0.021-0.378-0.058-0.565-0.095
		c-0.062-0.012-0.127-0.018-0.189-0.032c-0.177-0.04-0.35-0.095-0.524-0.149c-0.071-0.022-0.144-0.038-0.214-0.062
		c-0.126-0.043-0.246-0.099-0.369-0.15c-0.118-0.049-0.238-0.092-0.352-0.146c-0.063-0.03-0.123-0.068-0.185-0.1
		c-0.173-0.09-0.347-0.18-0.513-0.284c-0.003-0.001-0.005-0.003-0.007-0.005c-0.619-0.39-1.178-0.885-1.662-1.465
		c0.005-0.018,0.009-0.036,0.014-0.054c0.039-0.139,0.077-0.278,0.108-0.417c0.276-0.006,0.548-0.027,0.819-0.052
		c0.032-0.003,0.066-0.003,0.098-0.006c0.358-0.037,0.711-0.093,1.059-0.162c0.087-0.017,0.172-0.04,0.258-0.059
		c0.263-0.059,0.524-0.125,0.78-0.201c0.095-0.028,0.188-0.058,0.282-0.089c0.262-0.085,0.519-0.18,0.773-0.283
		c0.067-0.027,0.135-0.053,0.201-0.081c0.995-0.428,1.918-0.993,2.746-1.673c0.02-0.016,0.039-0.032,0.058-0.049
		c0.264-0.219,0.517-0.45,0.761-0.691c0.013-0.013,0.026-0.025,0.038-0.037c0.755-0.758,1.406-1.62,1.927-2.569
		c0.037-0.067,0.071-0.135,0.106-0.203c0.12-0.229,0.233-0.461,0.337-0.699c0.049-0.11,0.096-0.22,0.141-0.331
		c0.08-0.197,0.152-0.398,0.221-0.601c0.048-0.139,0.097-0.277,0.14-0.418c0.002-0.008,0.006-0.016,0.008-0.024
		c0.185,0.244,0.377,0.482,0.534,0.753c0.001,0.002,0.004,0.004,0.006,0.006c0.602,1.044,0.938,2.23,0.938,3.474
		C42.551,20.856,41.819,22.542,40.636,23.796z"/>
	<path d="M32.937,28.544l1.414,1.414l-1.414,1.414l-1.414-1.414L32.937,28.544z M35.768,34.202l-1.414-1.414l1.414-1.414
		l1.414,1.414L35.768,34.202z M28.695,29.958l1.414,1.414l-1.414,1.414l-1.414-1.414L28.695,29.958z M32.936,34.203l-1.414,1.414
		l-1.414-1.414l1.414-1.414L32.936,34.203z M34.348,38.444l-1.414-1.414l1.414-1.414l1.414,1.414L34.348,38.444z M27.278,34.2
		l1.414,1.414l-1.414,1.414l-1.414-1.414L27.278,34.2z M30.108,39.858l-1.414-1.414l1.414-1.414l1.414,1.414L30.108,39.858z
		 M32.938,42.687l-1.414-1.414l1.414-1.414l1.414,1.414L32.938,42.687z M28.696,41.272l1.414,1.414L28.697,44.1l-1.414-1.414
		L28.696,41.272z M31.524,46.93l-1.414-1.414l1.414-1.414l1.414,1.414L31.524,46.93z M30.108,51.173l-1.414-1.414l1.414-1.414
		l1.414,1.414L30.108,51.173z"/>
</g>
<g>
</g>
<g>
</g>
<g>
</g>
<g>
</g>
<g>
</g>
<g>
</g>
<g>
</g>
<g>
</g>
<g>
</g>
<g>
</g>
<g>
</g>
<g>
</g>
<g>
</g>
<g>
</g>
<g>
</g>
</svg>
