<?xml version="1.0" encoding="iso-8859-1"?>
<!-- Generator: Adobe Illustrator 19.0.0, SVG Export Plug-In . SVG Version: 6.00 Build 0)  -->
<svg version="1.1" id="Capa_1" xmlns="http://www.w3.org/2000/svg" xmlns:xlink="http://www.w3.org/1999/xlink" x="0px" y="0px"
	 viewBox="0 0 512.018 512.018" style="enable-background:new 0 0 512.018 512.018;" xml:space="preserve">
<g>
	<g>
		<g>
			<path d="M512.003,256.009v-16.425c0-76.917-112.45-137.175-256-137.175s-256,60.258-256,137.175v16.425
				c0.011,9.421,7.645,17.056,17.067,17.067v36.048c-3.895,1.592-7.319,4.151-9.95,7.435c-4.702,5.794-7.22,13.055-7.117,20.517
				c0,39.992,27.2,72.533,60.633,72.533H451.37c17.066-0.234,33.075-8.308,43.408-21.892c11.41-14.389,17.496-32.28,17.225-50.642
				c0.379-11.885-6.323-22.864-17.067-27.96v-36.04C504.358,273.065,511.992,265.43,512.003,256.009z M481.545,376.943
				L481.545,376.943c-7.128,9.559-18.255,15.311-30.175,15.6H60.636c-24.021,0-43.567-24.883-43.567-55.467
				c-0.074-3.53,1.086-6.975,3.279-9.742c1.284-1.817,3.332-2.945,5.554-3.058h92.58l20.207,22.733
				c1.619,1.823,3.941,2.867,6.379,2.867s4.76-1.043,6.379-2.867l34.807-39.157c16.657,21.55,42.515,33.967,69.748,33.491
				c27.233,0.476,53.091-11.94,69.747-33.491l34.807,39.157c1.619,1.823,3.941,2.867,6.379,2.867s4.76-1.043,6.379-2.867
				l20.207-22.733h92.58c4.704,0,8.833,5.983,8.833,12.8C495.204,351.512,490.473,365.596,481.545,376.943z M103.313,307.209H34.136
				v-34.133h38.835L103.313,307.209z M95.807,273.076h98.525l-49.263,55.425L95.807,273.076z M198.022,294.613l19.146-21.538h77.67
				l19.145,21.538c-13.44,18.627-35.011,29.663-57.981,29.663C233.033,324.276,211.462,313.24,198.022,294.613z M366.936,328.501
				l-49.263-55.425h98.525L366.936,328.501z M439.034,273.076h38.835v34.133h-69.177L439.034,273.076z M17.07,256.009v-16.425
				c0-53.394,69.691-98.744,165.738-114.321c13.252,7.626,21.583,21.595,21.995,36.879c0,4.713,3.821,8.533,8.533,8.533
				c4.713,0,8.533-3.821,8.533-8.533c-0.27-14.859-6.024-29.094-16.155-39.967c9.942-1.075,20.099-1.827,30.471-2.254
				c20.832,3.401,36.312,21.121,36.884,42.221c0,4.713,3.82,8.533,8.533,8.533s8.533-3.821,8.533-8.533
				c-0.153-15.981-6.691-31.236-18.157-42.369c14.933,0.499,29.511,1.658,43.576,3.479c15.298,6.996,25.295,22.075,25.781,38.89
				c0,4.713,3.82,8.533,8.533,8.533s8.533-3.821,8.533-8.533c-0.104-11.994-3.864-23.67-10.78-33.47
				c86.408,18.105,147.314,60.995,147.314,110.911v16.425H17.07z"/>
			<path d="M57.262,360.884c-0.816-0.771-1.772-1.379-2.817-1.792c-2.06-0.942-4.427-0.942-6.487,0
				c-1.033,0.433-1.984,1.039-2.813,1.792c-0.773,0.815-1.383,1.772-1.796,2.817c-0.436,1.026-0.667,2.127-0.68,3.242
				c-0.029,1.119,0.204,2.229,0.679,3.242c0.435,1.034,1.042,1.986,1.796,2.817c0.829,0.753,1.78,1.359,2.813,1.792
				c3.176,1.362,6.862,0.652,9.305-1.792c0.751-0.832,1.357-1.784,1.792-2.817c0.911-2.065,0.911-4.418,0-6.483
				C58.621,362.667,58.015,361.714,57.262,360.884z"/>
			<path d="M82.862,343.817c-0.83-0.753-1.783-1.359-2.817-1.792c-2.06-0.942-4.427-0.942-6.487,0
				c-1.033,0.433-1.984,1.039-2.813,1.792c-0.773,0.815-1.383,1.772-1.796,2.817c-0.436,1.026-0.667,2.127-0.68,3.242
				c-0.029,1.119,0.204,2.229,0.679,3.242c0.435,1.034,1.042,1.986,1.795,2.817c2.441,2.444,6.125,3.154,9.3,1.792
				c1.034-0.433,1.987-1.039,2.817-1.792c0.751-0.832,1.357-1.784,1.792-2.817c0.478-1.012,0.712-2.123,0.683-3.242
				c-0.014-1.115-0.246-2.216-0.683-3.242C84.24,345.59,83.632,344.634,82.862,343.817z"/>
			<path d="M108.462,360.884c-0.816-0.771-1.772-1.379-2.817-1.792c-2.06-0.942-4.427-0.942-6.487,0
				c-1.033,0.433-1.984,1.039-2.813,1.792c-0.773,0.815-1.383,1.772-1.796,2.817c-0.436,1.026-0.667,2.127-0.68,3.242
				c-0.029,1.119,0.204,2.229,0.679,3.242c0.78,2.141,2.467,3.828,4.608,4.608c3.176,1.362,6.862,0.653,9.305-1.791
				c0.751-0.832,1.357-1.784,1.792-2.817c0.911-2.065,0.911-4.418,0-6.483C109.821,362.667,109.215,361.714,108.462,360.884z"/>
			<path d="M415.662,360.884c-0.406-0.366-0.834-0.708-1.279-1.025c-0.475-0.325-0.992-0.582-1.537-0.767
				c-0.485-0.246-1.003-0.42-1.538-0.517c-2.811-0.571-5.721,0.295-7.763,2.308c-0.773,0.815-1.383,1.772-1.796,2.817
				c-0.906,2.066-0.906,4.417,0,6.483c0.78,2.141,2.467,3.828,4.608,4.608c2.067,0.911,4.421,0.911,6.487,0
				c1.034-0.433,1.987-1.039,2.817-1.792c0.751-0.832,1.357-1.784,1.792-2.817c0.911-2.065,0.911-4.418,0-6.483
				C417.04,362.656,416.432,361.7,415.662,360.884z"/>
			<path d="M441.262,343.817c-0.83-0.753-1.783-1.359-2.817-1.792c-2.06-0.942-4.427-0.942-6.487,0
				c-2.141,0.78-3.828,2.467-4.608,4.608c-1.36,3.176-0.65,6.86,1.793,9.302c2.443,2.442,6.128,3.151,9.303,1.79
				c1.034-0.433,1.987-1.039,2.817-1.792c0.751-0.832,1.357-1.784,1.792-2.817c0.478-1.012,0.712-2.122,0.682-3.24
				c-0.014-1.115-0.246-2.216-0.683-3.242C442.64,345.59,442.032,344.634,441.262,343.817z"/>
			<path d="M466.862,360.884c-0.407-0.366-0.834-0.708-1.279-1.025c-0.475-0.325-0.992-0.582-1.538-0.767
				c-0.485-0.246-1.003-0.42-1.538-0.517c-1.124-0.25-2.289-0.25-3.412,0c-0.535,0.096-1.053,0.27-1.538,0.517
				c-0.543,0.185-1.059,0.443-1.533,0.767c-0.447,0.315-0.875,0.657-1.28,1.025c-0.773,0.815-1.383,1.772-1.796,2.817
				c-0.906,2.066-0.906,4.417,0,6.483c0.78,2.141,2.467,3.828,4.608,4.608c2.067,0.911,4.421,0.911,6.487,0
				c1.034-0.433,1.987-1.039,2.817-1.792c0.751-0.832,1.357-1.784,1.792-2.817c0.911-2.065,0.911-4.418,0-6.483
				C468.24,362.656,467.632,361.7,466.862,360.884z"/>
			<path d="M296.195,360.884c-0.816-0.771-1.772-1.379-2.817-1.792c-2.06-0.942-4.428-0.942-6.487,0
				c-1.033,0.433-1.984,1.039-2.813,1.792c-0.773,0.815-1.383,1.772-1.796,2.817c-0.475,1.013-0.708,2.123-0.68,3.242
				c-0.016,1.109,0.186,2.211,0.596,3.242c0.496,1.02,1.128,1.968,1.879,2.817c2.441,2.444,6.125,3.154,9.3,1.792
				c1.034-0.433,1.987-1.039,2.817-1.792c0.749-0.85,1.379-1.798,1.875-2.817c0.413-1.03,0.617-2.132,0.6-3.242
				c0.029-1.119-0.205-2.229-0.683-3.242C297.553,362.667,296.948,361.714,296.195,360.884z"/>
			<path d="M321.795,343.817c-0.83-0.753-1.783-1.359-2.817-1.792c-2.06-0.942-4.427-0.942-6.487,0
				c-2.141,0.78-3.828,2.467-4.608,4.608c-1.36,3.176-0.65,6.86,1.793,9.302c2.443,2.442,6.128,3.151,9.303,1.79
				c1.034-0.433,1.987-1.039,2.817-1.792c0.751-0.832,1.357-1.784,1.792-2.817c0.478-1.012,0.712-2.122,0.682-3.24
				c-0.014-1.115-0.246-2.216-0.683-3.242C323.173,345.59,322.565,344.634,321.795,343.817z"/>
			<path d="M347.395,360.884c-0.816-0.771-1.772-1.379-2.817-1.792c-2.06-0.942-4.427-0.942-6.487,0
				c-1.033,0.433-1.984,1.039-2.813,1.792c-0.773,0.815-1.383,1.772-1.796,2.817c-0.475,1.013-0.708,2.123-0.68,3.242
				c-0.016,1.109,0.186,2.211,0.596,3.242c0.495,1.02,1.128,1.968,1.879,2.817c2.441,2.444,6.125,3.154,9.3,1.792
				c1.034-0.433,1.987-1.039,2.817-1.792c0.749-0.85,1.379-1.798,1.875-2.817c0.413-1.03,0.617-2.132,0.6-3.242
				c0.029-1.119-0.205-2.229-0.683-3.242C348.753,362.667,348.148,361.714,347.395,360.884z"/>
			<path d="M176.728,360.884c-3.421-3.158-8.695-3.158-12.117,0c-0.773,0.815-1.383,1.772-1.796,2.817
				c-0.906,2.066-0.906,4.417,0,6.483c0.78,2.141,2.467,3.828,4.608,4.608c2.067,0.911,4.421,0.911,6.487,0
				c1.034-0.433,1.987-1.039,2.817-1.792c0.751-0.832,1.357-1.784,1.792-2.817c0.911-2.065,0.911-4.418,0-6.483
				C178.107,362.656,177.499,361.7,176.728,360.884z"/>
			<path d="M202.328,343.817c-0.83-0.753-1.783-1.359-2.817-1.792c-2.06-0.942-4.427-0.942-6.487,0
				c-2.141,0.78-3.828,2.467-4.608,4.608c-0.476,1.013-0.708,2.124-0.68,3.243c-0.016,1.109,0.186,2.211,0.596,3.242
				c0.495,1.02,1.128,1.968,1.879,2.817c2.441,2.444,6.125,3.154,9.3,1.792c1.034-0.433,1.987-1.039,2.817-1.792
				c0.751-0.832,1.357-1.784,1.792-2.817c0.478-1.012,0.713-2.123,0.683-3.242c-0.014-1.115-0.246-2.216-0.683-3.242
				C203.707,345.59,203.099,344.634,202.328,343.817z"/>
			<path d="M227.928,360.884c-3.421-3.158-8.695-3.158-12.117,0c-0.773,0.815-1.383,1.772-1.796,2.817
				c-0.906,2.066-0.906,4.417,0,6.483c0.78,2.141,2.467,3.828,4.608,4.608c2.067,0.911,4.421,0.911,6.487,0
				c1.034-0.433,1.987-1.039,2.817-1.792c0.751-0.832,1.357-1.784,1.792-2.817c0.911-2.065,0.911-4.418,0-6.483
				C229.307,362.656,228.699,361.7,227.928,360.884z"/>
		</g>
	</g>
</g>
<g>
</g>
<g>
</g>
<g>
</g>
<g>
</g>
<g>
</g>
<g>
</g>
<g>
</g>
<g>
</g>
<g>
</g>
<g>
</g>
<g>
</g>
<g>
</g>
<g>
</g>
<g>
</g>
<g>
</g>
</svg>
