<?xml version="1.0" encoding="iso-8859-1"?>
<!-- Generator: Adobe Illustrator 19.0.0, SVG Export Plug-In . SVG Version: 6.00 Build 0)  -->
<svg version="1.1" id="Capa_1" xmlns="http://www.w3.org/2000/svg" xmlns:xlink="http://www.w3.org/1999/xlink" x="0px" y="0px"
	 viewBox="0 0 512 512" style="enable-background:new 0 0 512 512;" xml:space="preserve">
<g transform="translate(0 -1)">
	<g>
		<g>
			<path d="M498.033,257.598c8.081-1.534,13.939-8.583,13.967-16.808v-26.45c0-0.186-0.094-0.341-0.106-0.524
				c-0.051-0.689-0.189-1.368-0.408-2.023c-0.243-1.096-0.793-2.101-1.586-2.896c-0.179-0.212-0.297-0.464-0.496-0.657
				c-0.734-0.725-1.593-1.309-2.537-1.724l-0.06-0.026l-0.037-0.016L303.15,118.04c-10.424-4.37-22.481-1.359-29.625,7.4
				c-8.225,9.735-21.187,14.079-33.617,11.266c-12.43-2.813-22.259-12.314-25.491-24.641c-1.077-4.239-1.351-8.643-0.808-12.983
				c1.526-11.101-4.537-21.858-14.825-26.3l-41.1-17.834c-7.964-3.501-16.997-3.672-25.087-0.475
				C99.95,67.207,70.943,87.785,48.138,114.39c-22.904,26.805-38.971,58.761-46.825,93.133l-1.108,4.95
				c-0.013,0.279-0.012,0.559,0.004,0.837c-0.092,0.338-0.161,0.682-0.208,1.029v213.333c0.02,18.843,15.29,34.113,34.133,34.133
				h231.254c8.198-0.002,15.242-5.818,16.796-13.867c2.506-11.813,12.932-20.263,25.008-20.267
				c12.075-0.004,22.508,8.439,25.021,20.25c1.549,8.056,8.596,13.88,16.8,13.884h128.854c18.843-0.02,34.113-15.29,34.133-34.133
				v-103.25c-0.019-8.199-5.841-15.237-13.892-16.792c-11.791-2.52-20.224-12.929-20.242-24.986
				C477.849,270.588,486.25,260.154,498.033,257.598z M61.087,125.507c20.985-24.486,47.68-43.425,77.725-55.142
				c3.896-1.529,8.24-1.445,12.075,0.233l41.108,17.842c3.291,1.458,5.205,4.931,4.679,8.492c-0.808,6.443-0.407,12.98,1.184,19.275
				c4.787,18.532,19.508,32.849,38.167,37.117s38.14-2.225,50.508-16.833c2.275-3.028,6.287-4.173,9.817-2.8l166.046,72.116h-443.1
				C26.935,176.209,41.228,148.745,61.087,125.507z M494.933,324.423v103.25c-0.011,9.421-7.645,17.056-17.067,17.067l-128.95-0.3
				c-4.181-19.778-21.671-33.906-41.887-33.833s-37.604,14.325-41.643,34.133H34.133c-9.421-0.011-17.056-7.646-17.067-17.067
				v-204.8h477.725l-0.3,18.025c-19.739,4.249-33.798,21.751-33.691,41.942C460.907,303.031,475.151,320.383,494.933,324.423z"/>
			<path d="M409.6,393.54c0.02,18.843,15.29,34.113,34.133,34.133c18.851,0,34.133-15.282,34.133-34.133
				s-15.282-34.133-34.133-34.133C424.882,359.407,409.6,374.689,409.6,393.54z M460.8,393.54c0,9.426-7.641,17.067-17.067,17.067
				s-17.067-7.641-17.067-17.067c0.011-9.421,7.646-17.056,17.067-17.067C453.159,376.473,460.8,384.114,460.8,393.54z"/>
			<path d="M196.267,282.607c-28.277,0-51.2,22.923-51.2,51.2c0.031,28.264,22.936,51.169,51.2,51.2c28.277,0,51.2-22.923,51.2-51.2
				S224.544,282.607,196.267,282.607z M196.267,367.94c-18.851,0-34.133-15.282-34.133-34.133
				c0.02-18.843,15.29-34.113,34.133-34.133c18.851,0,34.133,15.282,34.133,34.133S215.118,367.94,196.267,367.94z"/>
			<path d="M324.267,248.473c-23.564,0-42.667,19.102-42.667,42.667c0.028,23.553,19.114,42.639,42.667,42.667
				c23.564,0,42.667-19.103,42.667-42.667S347.831,248.473,324.267,248.473z M324.267,316.74c-14.138,0-25.6-11.461-25.6-25.6
				c0.015-14.132,11.468-25.585,25.6-25.6c14.138,0,25.6,11.461,25.6,25.6C349.867,305.279,338.405,316.74,324.267,316.74z"/>
			<path d="M102.4,291.14c0-14.138-11.462-25.6-25.6-25.6s-25.6,11.461-25.6,25.6c0.015,14.132,11.468,25.585,25.6,25.6
				C90.938,316.74,102.4,305.279,102.4,291.14z M68.267,291.14c0.005-4.711,3.822-8.529,8.533-8.533
				c4.713,0,8.533,3.821,8.533,8.533c0,4.713-3.82,8.533-8.533,8.533S68.267,295.853,68.267,291.14z"/>
			<path d="M93.867,367.94c-14.132,0.015-25.585,11.468-25.6,25.6c0,14.138,11.461,25.6,25.6,25.6c14.138,0,25.6-11.462,25.6-25.6
				S108.005,367.94,93.867,367.94z M93.867,402.073c-4.713,0-8.533-3.82-8.533-8.533s3.821-8.533,8.533-8.533
				c4.711,0.005,8.529,3.822,8.533,8.533C102.4,398.253,98.579,402.073,93.867,402.073z"/>
			<path d="M304.725,370.415c-3.421-3.158-8.695-3.158-12.117,0c-0.755,0.829-1.363,1.782-1.796,2.817
				c-0.906,2.066-0.906,4.417,0,6.483c0.78,2.141,2.467,3.828,4.608,4.608c2.067,0.911,4.421,0.911,6.487,0
				c1.034-0.433,1.987-1.039,2.817-1.792c1.577-1.623,2.464-3.794,2.475-6.057c0.029-1.119-0.205-2.229-0.683-3.242
				C306.084,372.198,305.478,371.245,304.725,370.415z"/>
			<path d="M213.333,265.54c2.855,0.03,5.531-1.385,7.115-3.761s1.86-5.39,0.735-8.014c-0.413-1.044-1.021-2-1.792-2.817
				c-2.453-2.425-6.126-3.133-9.304-1.792c-1.054,0.392-2.012,1.002-2.813,1.792c-0.755,0.829-1.363,1.782-1.796,2.817
				c-1.122,2.625-0.843,5.638,0.741,8.013C207.803,264.153,210.479,265.568,213.333,265.54z"/>
			<path d="M418.133,308.207c2.855,0.03,5.531-1.385,7.115-3.761c1.584-2.376,1.86-5.39,0.735-8.014
				c-1.251-3.247-4.372-5.389-7.852-5.389c-3.48,0-6.601,2.142-7.852,5.389c-1.122,2.625-0.844,5.638,0.74,8.013
				C412.604,306.819,415.279,308.234,418.133,308.207z"/>
		</g>
	</g>
</g>
<g>
</g>
<g>
</g>
<g>
</g>
<g>
</g>
<g>
</g>
<g>
</g>
<g>
</g>
<g>
</g>
<g>
</g>
<g>
</g>
<g>
</g>
<g>
</g>
<g>
</g>
<g>
</g>
<g>
</g>
</svg>
