<?xml version="1.0" encoding="iso-8859-1"?>
<!-- Generator: Adobe Illustrator 19.0.0, SVG Export Plug-In . SVG Version: 6.00 Build 0)  -->
<svg version="1.1" id="Capa_1" xmlns="http://www.w3.org/2000/svg" xmlns:xlink="http://www.w3.org/1999/xlink" x="0px" y="0px"
	 viewBox="0 0 512.067 512.067" style="enable-background:new 0 0 512.067 512.067;" xml:space="preserve">
<g transform="translate(0 -1)">
	<g>
		<g>
			<path d="M509.719,52.246c-6.384-23.868-25.027-42.512-48.896-48.896c-23.868-6.384-49.329,0.462-66.777,17.956l-91.771,91.767
				L65.238,350.11c-5.905,5.89-10.518,12.945-13.546,20.717L0.588,501.423c-1.236,3.157-0.486,6.746,1.911,9.143
				s5.986,3.147,9.143,1.911l130.6-51.104c7.77-3.03,14.825-7.643,20.717-13.546l16.779-16.779l0.013-0.009l0.009-0.014
				l220.233-220.237l48.946-48.942l0.004-0.006l24.464-24.464l0.003-0.002l0.002-0.003l18.353-18.351
				C509.257,101.575,516.103,76.114,509.719,52.246z M23.588,489.477l14.174-36.224c10.463,3.384,18.666,11.585,22.051,22.048
				L23.588,489.477z M150.892,435.756c-4.227,4.238-9.29,7.549-14.867,9.725l-60.392,23.63c-2.527-7.344-6.67-14.027-12.125-19.556
				c-5.529-5.454-12.212-9.596-19.556-12.122l23.631-60.391c2.172-5.577,5.483-10.64,9.721-14.867l10.761-10.761l0.085,0.085
				c6.792,6.81,6.792,17.832,0,24.642c-2.156,2.156-2.997,5.297-2.208,8.242c0.789,2.944,3.089,5.244,6.033,6.033
				s6.086-0.053,8.242-2.208c6.905-6.558,17.737-6.558,24.642,0c6.792,6.808,6.792,17.829,0,24.637
				c-2.156,2.156-2.997,5.297-2.208,8.242c0.789,2.945,3.089,5.244,6.033,6.033c2.945,0.789,6.086-0.053,8.242-2.208
				c6.808-6.792,17.829-6.792,24.638,0l0.085,0.085L150.892,435.756z M173.717,412.931l-0.083-0.083
				c-7.09-7.04-16.899-10.637-26.86-9.848c0.762-9.54-2.506-18.964-9.011-25.984c-6.506-7.02-15.654-10.995-25.225-10.959
				c-0.84,0-1.644,0.182-2.473,0.241c0.791-9.961-2.806-19.772-9.847-26.862l-0.085-0.085l208.177-208.177l73.583,73.583
				L173.717,412.931z M393.959,192.689l-73.583-73.583l36.879-36.875l73.582,73.582L393.959,192.689z M442.903,143.746
				L369.32,70.163l12.405-12.403l73.583,73.583L442.903,143.746z M479.696,106.956l-12.321,12.321l-73.583-73.583l12.321-12.321
				c20.337-20.214,53.195-20.164,73.471,0.112S499.91,86.618,479.696,106.956z"/>
			<path d="M302.271,162.014l-6.117,6.121c-3.3,3.34-3.283,8.718,0.038,12.036c3.321,3.319,8.699,3.332,12.036,0.03l6.117-6.121
				c3.304-3.339,3.288-8.72-0.034-12.04C310.989,158.72,305.608,158.709,302.271,162.014z"/>
			<path d="M271.688,192.606L130.975,333.319c-3.332,3.332-3.332,8.735,0,12.067c3.332,3.332,8.735,3.332,12.067,0l140.713-140.712
				c3.332-3.332,3.332-8.735,0-12.067C280.422,189.274,275.02,189.274,271.688,192.606z"/>
		</g>
	</g>
</g>
<g>
</g>
<g>
</g>
<g>
</g>
<g>
</g>
<g>
</g>
<g>
</g>
<g>
</g>
<g>
</g>
<g>
</g>
<g>
</g>
<g>
</g>
<g>
</g>
<g>
</g>
<g>
</g>
<g>
</g>
</svg>
