<?xml version="1.0" encoding="iso-8859-1"?>
<!-- Generator: Adobe Illustrator 19.0.0, SVG Export Plug-In . SVG Version: 6.00 Build 0)  -->
<svg version="1.1" id="Layer_1" xmlns="http://www.w3.org/2000/svg" xmlns:xlink="http://www.w3.org/1999/xlink" x="0px" y="0px"
	 viewBox="0 0 512 512" style="enable-background:new 0 0 512 512;" xml:space="preserve">
<g transform="translate(1 1)">
	<g>
		<path d="M442.733,186.733c-9.166,0-17.919,1.842-25.924,5.156L315.635,98.494c4.863-9.374,7.632-19.99,7.632-31.227
			C323.267,29.72,292.547-1,255-1c-37.547,0-68.267,30.72-68.267,68.267c0,11.244,2.772,21.866,7.64,31.244L93.189,191.888
			c-8.004-3.313-16.757-5.155-25.922-5.155C29.72,186.733-1,217.453-1,255s30.72,68.267,68.267,68.267
			c9.163,0,17.913-1.841,25.915-5.152l101.179,93.399c-4.861,9.372-7.628,19.985-7.628,31.22C186.733,480.28,217.453,511,255,511
			c37.547,0,68.267-30.72,68.267-68.267c0-11.214-2.758-21.81-7.602-31.17l101.129-93.459c8.009,3.318,16.768,5.162,25.94,5.162
			C480.28,323.267,511,292.547,511,255C511,217.453,480.28,186.733,442.733,186.733z M255,16.067c28.16,0,51.2,23.04,51.2,51.2
			c0,28.16-23.04,51.2-51.2,51.2c-28.16,0-51.2-23.04-51.2-51.2C203.8,39.107,226.84,16.067,255,16.067z M16.067,255
			c0-28.16,23.04-51.2,51.2-51.2c28.16,0,51.2,23.04,51.2,51.2c0,28.16-23.04,51.2-51.2,51.2C39.107,306.2,16.067,283.16,16.067,255
			z M255,493.933c-28.16,0-51.2-23.04-51.2-51.2c0-28.16,23.04-51.2,51.2-51.2c28.16,0,51.2,23.04,51.2,51.2
			C306.2,470.893,283.16,493.933,255,493.933z M305.885,397.364c-12.526-14.025-30.716-22.897-50.885-22.897
			c-20.15,0-38.325,8.855-50.849,22.857l-95.491-88.148c16.305-12.505,26.874-32.161,26.874-54.175
			c0-22.011-10.567-41.665-26.868-54.17l95.502-88.134c12.524,13.991,30.692,22.837,50.833,22.837
			c20.147,0,38.32-8.852,50.844-22.851l95.49,88.147c-16.301,12.505-26.867,32.159-26.867,54.17
			c0,22.007,10.562,41.657,26.858,54.162L305.885,397.364z M442.733,306.2c-28.16,0-51.2-23.04-51.2-51.2
			c0-28.16,23.04-51.2,51.2-51.2c28.16,0,51.2,23.04,51.2,51.2C493.933,283.16,470.893,306.2,442.733,306.2z"/>
	</g>
</g>
<g>
</g>
<g>
</g>
<g>
</g>
<g>
</g>
<g>
</g>
<g>
</g>
<g>
</g>
<g>
</g>
<g>
</g>
<g>
</g>
<g>
</g>
<g>
</g>
<g>
</g>
<g>
</g>
<g>
</g>
</svg>
