<?xml version='1.0' encoding='iso-8859-1'?>
<svg version="1.1" xmlns="http://www.w3.org/2000/svg" viewBox="0 0 470 470" xmlns:xlink="http://www.w3.org/1999/xlink" enable-background="new 0 0 470 470">
  <g>
    <path d="m447.5,254.483h-17.666v-163.388c0-26.191-21.309-47.5-47.5-47.5h-9.552c-5.918-16.781-30.036-28.044-33.125-29.427-1.95-0.873-4.18-0.873-6.13,0-3.089,1.383-27.207,12.646-33.125,29.427h-15.802c-6.467-23.929-42.113-40.555-46.536-42.535-1.949-0.873-4.18-0.873-6.129-2.22045e-15-4.423,1.98-40.068,18.606-46.536,42.535h-15.802c-5.918-16.781-30.036-28.044-33.125-29.427-1.95-0.873-4.18-0.873-6.13,0-3.089,1.383-27.207,12.646-33.125,29.427h-9.552c-26.191,0-47.5,21.309-47.5,47.5v163.388h-17.665c-12.407,0-22.5,10.094-22.5,22.5s10.093,22.5 22.5,22.5h136.049c3.484,17.096 18.635,30 36.745,30h13.223v36.639c-16.743,8.676-28.046,24.889-30.464,43.474h-25.78c-13.948,0-29.312,9.984-34.977,22.73l-9.897,22.27h-15.126c-4.142,0-7.5,3.357-7.5,7.5s3.358,7.5 7.5,7.5h19.958c0.065,0 245.473,0 245.473,0 0.065,0 20.023,0 20.023,0 4.142,0 7.5-3.357 7.5-7.5s-3.358-7.5-7.5-7.5h-15.126l-9.897-22.27c-5.665-12.746-21.029-22.73-34.977-22.73h-25.78c-2.418-18.585-13.721-34.798-30.464-43.475v-36.638h13.223c18.11,0 33.261-12.904 36.745-30h136.049c12.407,0 22.5-10.094 22.5-22.5s-10.093-22.5-22.5-22.5zm-110.908-225.143c6.782,3.49 14.691,8.896 19.095,14.255h-38.188c4.403-5.36 12.313-10.767 19.093-14.255zm-101.587-13.127c9.742,4.875 27.625,15.795 33.594,27.382h-67.188c5.982-11.563 23.861-22.498 33.594-27.382zm-101.598,13.127c6.782,3.49 14.691,8.896 19.095,14.255h-38.188c4.403-5.36 12.314-10.767 19.093-14.255zm-45.741,29.255h294.668c17.92,0 32.5,14.579 32.5,32.5v23c-13.563,1.819-21.473,8.441-28.555,14.402-7.553,6.357-13.52,11.379-26.396,11.379s-18.842-5.021-26.396-11.379c-8.299-6.985-17.706-14.902-36.055-14.902-18.347,0-27.752,7.917-36.051,14.903-7.552,6.356-13.517,11.378-26.391,11.378-12.875,0-18.84-5.021-26.393-11.379-8.298-6.985-17.704-14.902-36.052-14.902-18.347,0-27.752,7.917-36.05,14.902-4.436,3.735-8.626,7.263-14.052,9.322-2.913,1.105-4.838,3.896-4.838,7.012v41.285c0,4.136-3.364,7.5-7.5,7.5-4.135,0-7.5-3.364-7.5-7.5 0-13.671 0-39.44 0.003-41.164 0.052-3.113-1.846-5.996-4.838-7.132-5.427-2.06-9.618-5.588-14.054-9.322-7.081-5.962-14.989-12.583-28.55-14.403v-23c-2.84217e-14-17.921 14.58-32.5 32.5-32.5zm-32.5,70.688c8.032,1.574 12.983,5.717 18.89,10.689 3.871,3.259 8.146,6.857 13.552,9.689l-.002,36.454c0,12.406 10.093,22.5 22.5,22.5s22.5-10.094 22.5-22.5v-36.454c5.405-2.832 9.68-6.431 13.551-9.689 7.552-6.356 13.517-11.378 26.39-11.378 12.875,0 18.84,5.021 26.392,11.379 8.299,6.985 17.705,14.902 36.052,14.902 18.347,0 27.752-7.917 36.051-14.903 7.552-6.356 13.517-11.378 26.391-11.378 12.877,0 18.843,5.021 26.396,11.379 8.299,6.985 17.706,14.902 36.055,14.902 18.349,0 27.756-7.917 36.055-14.902 5.909-4.973 10.861-9.117 18.896-10.691v125.199h-359.669v-125.198zm195.964,248.555c13.623,5.605 23.132,17.631 25.643,31.757h-41.711c-4.142,0-7.5,3.357-7.5,7.5s3.358,7.5 7.5,7.5h82.666c8.058,0 17.997,6.459 21.27,13.822l7.19,16.178h-222.375l7.19-16.178c3.273-7.363 13.212-13.822 21.27-13.822h52.789c4.142,0 7.5-3.357 7.5-7.5s-3.358-7.5-7.5-7.5h-11.834c2.511-14.125 12.02-26.151 25.643-31.757 2.812-1.156 4.646-3.896 4.646-6.936v-41.42h22.967v41.42c-0.001,3.041 1.834,5.78 4.646,6.936zm23.576-63.355h-79.412c-9.777,0-18.114-6.271-21.21-15h121.832c-3.096,8.729-11.432,15-21.21,15zm172.794-30h-425c-4.136,0-7.5-3.364-7.5-7.5s3.364-7.5 7.5-7.5h425c4.136,0 7.5,3.364 7.5,7.5s-3.364,7.5-7.5,7.5z"/>
    <circle cx="338.186" cy="223.157" r="7.5"/>
    <circle cx="368.186" cy="193.157" r="7.5"/>
  </g>
</svg>
