<?xml version='1.0' encoding='iso-8859-1'?>
<svg version="1.1" xmlns="http://www.w3.org/2000/svg" viewBox="0 0 470 470" xmlns:xlink="http://www.w3.org/1999/xlink" enable-background="new 0 0 470 470">
  <path d="m388.233,77.666c-1.424-1.691-3.522-2.666-5.733-2.666h-58.556l-80.08-32.032 8.412-33.649c0.56-2.24 0.057-4.614-1.365-6.435-1.421-1.82-3.602-2.884-5.911-2.884h-50c-2.31,0-4.49,1.064-5.912,2.884s-1.925,4.194-1.364,6.435l8.412,33.649-80.08,32.032h-28.556c-2.978,0-5.673,1.762-6.869,4.489-1.195,2.728-0.664,5.903 1.354,8.093l35.355,38.37 22.769,132.815c0.617,3.601 3.739,6.233 7.392,6.233h2.5v15h-2.5c-3.653,0-6.775,2.632-7.392,6.233l-30,175c-0.374,2.179 0.233,4.412 1.658,6.102 1.425,1.69 3.523,2.666 5.734,2.666h205c4.162,0 7.52-3.358 7.52-7.5 0-0.629-0.077-1.239-0.223-1.823l-29.904-174.444c-0.617-3.601-3.739-6.233-7.393-6.233h-2.501v-15h2.5c3.653,0 6.774-2.632 7.393-6.233l28.93-168.768h44.781l-27.428,160h-8.676c-4.143,0-7.5,3.358-7.5,7.5s3.357,7.5 7.5,7.5h15c3.653,0 6.774-2.632 7.393-6.233l30-175c0.373-2.179-0.234-4.412-1.66-6.101zm-152.839-62.666l-6.25,25h-18.289l-6.25-25h30.789zm-28.95,40h27.111l50,20h-127.111l50-20zm-3.527,195l-9.143-160h52.452l-9.143,160h-34.166zm-71.168-128.767c-0.245-1.426-0.896-2.751-1.876-3.815l-25.264-27.418h12.725c0.023,0 0.047,0 0.07,0h61.345l9.143,160h-34.069l-22.074-128.767zm22.075,173.767h34.069l-3.691,64.597c-0.236,4.135 2.924,7.679 7.06,7.916 0.146,0.008 0.29,0.012 0.435,0.012 3.946,0 7.253-3.083 7.481-7.072l3.74-65.452h34.167l9.143,160h-52.452l3.691-64.597c0.236-4.135-2.924-7.679-7.06-7.916-4.126-0.232-7.679,2.924-7.916,7.06l-3.741,65.452h-52.355l27.429-160zm159.78,160h-52.354l-9.143-160h34.069l27.428,160zm-38.604-175h-110v-15h110v15zm11.177-30h-34.069l9.143-160h52.354l-27.428,160z"/>
</svg>
