<?xml version="1.0" encoding="iso-8859-1"?>
<!-- Generator: Adobe Illustrator 19.0.0, SVG Export Plug-In . SVG Version: 6.00 Build 0)  -->
<svg version="1.1" id="Capa_1" xmlns="http://www.w3.org/2000/svg" xmlns:xlink="http://www.w3.org/1999/xlink" x="0px" y="0px"
	 viewBox="0 0 480.018 480.018" style="enable-background:new 0 0 480.018 480.018;" xml:space="preserve">
<g>
	<g>
		<path d="M312.009,240.018h-128c-4.418,0-8,3.582-8,8v64c0.026,22.08,17.92,39.974,40,40h48c22.08-0.026,39.974-17.92,40-40v-8h8
			c13.255,0,24-10.745,24-24v-16C336.009,250.763,325.264,240.018,312.009,240.018z M288.009,312.018c0,13.255-10.745,24-24,24h-48
			c-13.255,0-24-10.745-24-24v-56h96V312.018z M320.009,280.018c0,4.418-3.582,8-8,8h-8v-32h8c4.418,0,8,3.582,8,8V280.018z"/>
	</g>
</g>
<g>
	<g>
		<path d="M246.865,188.138c2.374-3.591,3.61-7.815,3.544-12.12h-16c0.056,1.408-0.392,2.789-1.264,3.896
			c-4.72,7.388-4.72,16.844,0,24.232c1.674,2.316,1.674,5.444,0,7.76c-2.369,3.59-3.601,7.811-3.536,12.112h16
			c-0.055-1.399,0.39-2.772,1.256-3.872c4.721-7.385,4.721-16.839,0-24.224C245.185,193.599,245.185,190.461,246.865,188.138z"/>
	</g>
</g>
<g>
	<g>
		<path d="M286.865,188.138c2.374-3.591,3.61-7.815,3.544-12.12h-16c0.056,1.408-0.392,2.789-1.264,3.896
			c-4.72,7.388-4.72,16.844,0,24.232c1.674,2.316,1.674,5.444,0,7.76c-2.369,3.59-3.601,7.811-3.536,12.112h16
			c-0.055-1.399,0.39-2.772,1.256-3.872c4.721-7.385,4.721-16.839,0-24.224C285.185,193.599,285.185,190.461,286.865,188.138z"/>
	</g>
</g>
<g>
	<g>
		<path d="M206.865,188.138c2.374-3.591,3.61-7.815,3.544-12.12h-16c0.056,1.408-0.392,2.789-1.264,3.896
			c-4.72,7.388-4.72,16.844,0,24.232c1.674,2.316,1.674,5.444,0,7.76c-2.369,3.59-3.601,7.811-3.536,12.112h16
			c-0.055-1.399,0.39-2.772,1.256-3.872c4.721-7.385,4.721-16.839,0-24.224C205.185,193.599,205.185,190.461,206.865,188.138z"/>
	</g>
</g>
<g>
	<g>
		<path d="M416.009,40.018h-81.472c-3.378-9.555-12.394-15.958-22.528-16h-35.336c-8.832-20.249-32.407-29.504-52.656-20.672
			c-9.252,4.036-16.636,11.42-20.672,20.672h-35.336c-10.134,0.042-19.15,6.445-22.528,16H64.009c-4.418,0-8,3.582-8,8v424
			c0,4.418,3.582,8,8,8h352c4.418,0,8-3.582,8-8v-424C424.009,43.6,420.427,40.018,416.009,40.018z M160.009,48.018
			c0-4.418,3.582-8,8-8h41.04c3.659-0.001,6.852-2.485,7.752-6.032c3.394-12.813,16.532-20.449,29.345-17.055
			c8.336,2.208,14.847,8.719,17.055,17.055c0.902,3.553,4.103,6.038,7.768,6.032h41.04c4.418,0,8,3.582,8,8v40h-160V48.018z
			 M152.009,104.018h176c4.418,0,8-3.582,8-8v-8h40v344h-272v-344h40v8C144.009,100.436,147.591,104.018,152.009,104.018z
			 M408.009,464.018h-336v-408h72v16h-48c-4.418,0-8,3.582-8,8v360c0,4.418,3.582,8,8,8h288c4.418,0,8-3.582,8-8v-360
			c0-4.418-3.582-8-8-8h-48v-16h72V464.018z"/>
	</g>
</g>
<g>
	<g>
		<path d="M240.009,24.018c-13.255,0-24,10.745-24,24s10.745,24,24,24s24-10.745,24-24S253.264,24.018,240.009,24.018z
			 M240.009,56.018c-4.418,0-8-3.582-8-8s3.582-8,8-8s8,3.582,8,8S244.427,56.018,240.009,56.018z"/>
	</g>
</g>
<g>
</g>
<g>
</g>
<g>
</g>
<g>
</g>
<g>
</g>
<g>
</g>
<g>
</g>
<g>
</g>
<g>
</g>
<g>
</g>
<g>
</g>
<g>
</g>
<g>
</g>
<g>
</g>
<g>
</g>
</svg>
