<?xml version="1.0" encoding="iso-8859-1"?>
<!-- Generator: Adobe Illustrator 19.0.0, SVG Export Plug-In . SVG Version: 6.00 Build 0)  -->
<svg version="1.1" id="Capa_1" xmlns="http://www.w3.org/2000/svg" xmlns:xlink="http://www.w3.org/1999/xlink" x="0px" y="0px"
	 viewBox="0 0 511.999 511.999" style="enable-background:new 0 0 511.999 511.999;" xml:space="preserve">
<g>
	<g>
		<g>
			<path d="M236.496,495.999H51.999v-368h264v240c0,4.418,3.582,8,8,8s8-3.582,8-8v-248c0-4.418-3.582-8-8-8h-32v-104
				c-0.001-4.418-3.583-8-8.001-7.999c-1.169,0-2.324,0.256-3.383,0.751l-240,112c-0.839,0.399-1.602,0.94-2.256,1.6
				c-0.064,0.064-0.096,0.16-0.16,0.232c-0.595,0.629-1.084,1.35-1.448,2.136c-0.105,0.296-0.193,0.598-0.264,0.904
				c-0.217,0.633-0.352,1.292-0.4,1.96c0,0.152-0.088,0.288-0.088,0.44v383.976c0,4.418,3.582,8,8,8h192.496c4.418,0,8-3.582,8-8
				S240.914,495.999,236.496,495.999z M275.999,20.559v91.44H80.056L275.999,20.559z"/>
			<path d="M243.999,319.999c4.418,0,8-3.582,8-8v-128c0-4.418-3.582-8-8-8h-128c-4.418,0-8,3.582-8,8v128c0,4.418,3.582,8,8,8
				H243.999z M123.999,191.999h112v112h-112V191.999z"/>
			<path d="M267.999,343.999h-176c-4.418,0-8,3.582-8,8s3.582,8,8,8h176c4.418,0,8-3.582,8-8S272.418,343.999,267.999,343.999z"/>
			<path d="M267.999,383.999h-176c-4.418,0-8,3.582-8,8s3.582,8,8,8h176c4.418,0,8-3.582,8-8S272.418,383.999,267.999,383.999z"/>
			<path d="M467.999,479.999c4.418,0,8-3.582,8-8v-9.16c-0.048-39.107-31.741-70.796-70.848-70.84h-25.152v-16c0-4.418-3.582-8-8-8
				s-8,3.582-8,8v16h-25.152c-39.107,0.044-70.799,31.733-70.848,70.84v9.16c0,4.418,3.582,8,8,8h24v16h-24c-4.418,0-8,3.582-8,8
				s3.582,8,8,8h192c4.418,0,8-3.582,8-8s-3.582-8-8-8h-24v-16H467.999z M427.999,495.999h-112v-16h112V495.999z M283.999,463.999
				v-1.16c0.035-30.276,24.572-54.809,54.848-54.84h66.304c30.276,0.031,54.813,24.564,54.848,54.84v1.16H283.999z"/>
		</g>
	</g>
</g>
<g>
</g>
<g>
</g>
<g>
</g>
<g>
</g>
<g>
</g>
<g>
</g>
<g>
</g>
<g>
</g>
<g>
</g>
<g>
</g>
<g>
</g>
<g>
</g>
<g>
</g>
<g>
</g>
<g>
</g>
</svg>
