<?xml version="1.0" encoding="iso-8859-1"?>
<!-- Generator: Adobe Illustrator 19.0.0, SVG Export Plug-In . SVG Version: 6.00 Build 0)  -->
<svg version="1.1" id="Capa_1" xmlns="http://www.w3.org/2000/svg" xmlns:xlink="http://www.w3.org/1999/xlink" x="0px" y="0px"
	 viewBox="0 0 479.936 479.936" style="enable-background:new 0 0 479.936 479.936;" xml:space="preserve">
<g>
	<g>
		<path d="M332.173,0.228c-45.277,0.15-83.051,34.632-87.317,79.708h-48.392v-56c-0.001-4.034-3.005-7.436-7.008-7.936l-128-16
			l-1.984,15.872L180.464,31v48.936h-32c-8.837,0-16,7.163-16,16v360c0,13.255,10.745,24,24,24h160c13.255,0,24-10.745,24-24
			V175.544c45.302-4.135,79.986-42.117,80-87.608C420.303,39.335,380.773,0.067,332.173,0.228z M276.24,43.024l36.912,36.912
			h-52.216C262.412,66.424,267.722,53.616,276.24,43.024z M324.464,455.936c0,4.418-3.582,8-8,8h-160c-4.418,0-8-3.582-8-8v-360h32
			v328h16v-328h128V455.936z M324.464,68.624l-36.912-36.912c10.592-8.518,23.4-13.828,36.912-15.304V68.624z M403.992,79.936
			h-52.216l36.912-36.912C397.206,53.616,402.516,66.424,403.992,79.936z M340.464,16.408c13.512,1.476,26.32,6.786,36.912,15.304
			l-36.912,36.912V16.408z M340.464,159.464v-52.216l36.912,36.912C366.784,152.678,353.976,157.988,340.464,159.464z
			 M388.688,132.848l-36.912-36.912h52.216C402.516,109.448,397.206,122.256,388.688,132.848z"/>
	</g>
</g>
<g>
</g>
<g>
</g>
<g>
</g>
<g>
</g>
<g>
</g>
<g>
</g>
<g>
</g>
<g>
</g>
<g>
</g>
<g>
</g>
<g>
</g>
<g>
</g>
<g>
</g>
<g>
</g>
<g>
</g>
</svg>
