<?xml version="1.0" encoding="iso-8859-1"?>
<!-- Generator: Adobe Illustrator 19.0.0, SVG Export Plug-In . SVG Version: 6.00 Build 0)  -->
<svg version="1.1" id="Capa_1" xmlns="http://www.w3.org/2000/svg" xmlns:xlink="http://www.w3.org/1999/xlink" x="0px" y="0px"
	 viewBox="0 0 511.001 511.001" style="enable-background:new 0 0 511.001 511.001;" xml:space="preserve">
<g>
	<path d="M183.501,183h48c4.142,0,7.5-3.358,7.5-7.5s-3.358-7.5-7.5-7.5h-48c-4.142,0-7.5,3.358-7.5,7.5S179.359,183,183.501,183z"
		/>
	<path d="M477.43,250.907c-1.421-1.833-3.61-2.907-5.929-2.907h-13.406c7.994-8.504,12.906-19.936,12.906-32.5
		c0-26.191-21.309-47.5-47.5-47.5h-13.406c7.994-8.504,12.906-19.936,12.906-32.5c0-26.191-21.309-47.5-47.5-47.5h-61.407
		c3.225-7.7,4.907-15.989,4.907-24.5c0-35.014-28.486-63.5-63.5-63.5s-63.5,28.486-63.5,63.5c0,8.456,1.687,16.781,4.913,24.5
		h-61.413c-26.191,0-47.5,21.309-47.5,47.5c0,12.564,4.913,23.996,12.906,32.5H87.501c-26.191,0-47.5,21.309-47.5,47.5
		c0,12.564,4.913,23.996,12.906,32.5H39.501c-2.319,0-4.508,1.073-5.929,2.907c-1.42,1.834-1.913,4.222-1.333,6.467L90.044,481.37
		c4.502,17.446,20.23,29.63,38.247,29.63h7.168c0.011,0,0.022,0.001,0.033,0.001c0.01,0,0.021-0.001,0.031-0.001h31.958
		c0.003,0,0.007,0,0.01,0s0.007,0,0.01,0h175.997c0.003,0,0.007,0,0.01,0s0.007,0,0.01,0h31.959c0.01,0,0.021,0.001,0.031,0.001
		c0.011,0,0.022-0.001,0.033-0.001h7.17c18.017,0,33.745-12.184,38.247-29.63l57.804-223.996
		C479.343,255.128,478.85,252.74,477.43,250.907z M369.313,496h-17.552l22.548-233h40.1L369.313,496z M311.247,496l7.516-233h40.477
		l-22.548,233H311.247z M174.31,496l-22.549-233h40.477l7.516,233H174.31z M141.688,496L96.592,263h40.1l22.549,233H141.688z
		 M207.247,263h40.754v233h-33.238L207.247,263z M263.001,263h40.754l-7.516,233h-33.238V263z M207.001,63.5
		c0-26.743,21.757-48.5,48.5-48.5s48.5,21.757,48.5,48.5c0,8.697-2.284,17.092-6.634,24.5h-83.715
		C209.308,80.596,207.001,72.142,207.001,63.5z M55.001,215.5c0-17.92,14.58-32.5,32.5-32.5h64c4.142,0,7.5-3.358,7.5-7.5
		s-3.358-7.5-7.5-7.5h-16c-17.92,0-32.5-14.58-32.5-32.5s14.58-32.5,32.5-32.5h165.887c0.022,0,0.044,0.005,0.066,0.005
		c0.028,0,0.055-0.005,0.083-0.005h73.965c17.92,0,32.5,14.58,32.5,32.5s-14.58,32.5-32.5,32.5h-16c-4.142,0-7.5,3.358-7.5,7.5
		s3.358,7.5,7.5,7.5h64c17.92,0,32.5,14.58,32.5,32.5s-14.58,32.5-32.5,32.5h-0.059c-0.016,0-0.032,0-0.048,0H143.549
		c-0.003,0-0.007,0-0.01,0h-55.93c-0.017,0-0.034,0-0.051,0h-0.058C69.58,248,55.001,233.42,55.001,215.5z M104.569,477.622
		L49.182,263h32.131l45.081,232.92C116.027,495.12,107.202,487.825,104.569,477.622z M406.435,477.622
		c-2.633,10.204-11.459,17.499-21.828,18.298L429.688,263h32.131L406.435,477.622z"/>
	<path d="M255.501,32c-4.142,0-7.5,3.358-7.5,7.5s3.358,7.5,7.5,7.5c9.098,0,16.5,7.402,16.5,16.5c0,4.142,3.358,7.5,7.5,7.5
		s7.5-3.358,7.5-7.5C287.001,46.131,272.87,32,255.501,32z"/>
	<path d="M367.502,135h7.999c0.276,0,0.5,0.224,0.5,0.5c0,4.142,3.358,7.5,7.5,7.5s7.5-3.358,7.5-7.5c0-8.547-6.953-15.5-15.5-15.5
		h-7.999c-4.142,0-7.5,3.358-7.5,7.5S363.36,135,367.502,135z"/>
	<path d="M303.501,135h32.002c4.142,0,7.5-3.358,7.5-7.5s-3.358-7.5-7.5-7.5h-32.002c-4.142,0-7.5,3.358-7.5,7.5
		S299.359,135,303.501,135z"/>
	<path d="M415.502,215h7.999c0.276,0,0.5,0.224,0.5,0.5c0,4.142,3.358,7.5,7.5,7.5s7.5-3.358,7.5-7.5c0-8.547-6.953-15.5-15.5-15.5
		h-7.999c-4.142,0-7.5,3.358-7.5,7.5S411.36,215,415.502,215z"/>
	<path d="M295.501,215h88.002c4.142,0,7.5-3.358,7.5-7.5s-3.358-7.5-7.5-7.5h-88.002c-4.142,0-7.5,3.358-7.5,7.5
		S291.359,215,295.501,215z"/>
</g>
<g>
</g>
<g>
</g>
<g>
</g>
<g>
</g>
<g>
</g>
<g>
</g>
<g>
</g>
<g>
</g>
<g>
</g>
<g>
</g>
<g>
</g>
<g>
</g>
<g>
</g>
<g>
</g>
<g>
</g>
</svg>
