<?xml version="1.0" standalone="no"?>
<!DOCTYPE svg PUBLIC "-//W3C//DTD SVG 20010904//EN"
 "http://www.w3.org/TR/2001/REC-SVG-20010904/DTD/svg10.dtd">
<svg version="1.0" xmlns="http://www.w3.org/2000/svg"
 width="524.000000pt" height="524.000000pt" viewBox="0 0 524.000000 524.000000"
 preserveAspectRatio="xMidYMid meet">
<metadata>
Created by potrace 1.15, written by Peter Selinger 2001-2017
</metadata>
<g transform="translate(0.000000,524.000000) scale(0.100000,-0.100000)"
fill="#000000" stroke="none">
<path d="M0 4470 l0 -770 775 0 775 0 0 770 0 770 -775 0 -775 0 0 -770z
m1410 5 l0 -635 -640 0 -640 0 0 635 0 635 640 0 640 0 0 -635z"/>
<path d="M1840 4470 l0 -770 775 0 775 0 0 770 0 770 -775 0 -775 0 0 -770z
m1410 5 l0 -635 -635 0 -635 0 0 635 0 635 635 0 635 0 0 -635z"/>
<path d="M3690 4470 l0 -770 775 0 775 0 0 770 0 770 -775 0 -775 0 0 -770z
m1420 5 l0 -635 -640 0 -640 0 0 635 0 635 640 0 640 0 0 -635z"/>
<path d="M0 2615 l0 -775 775 0 775 0 0 775 0 775 -775 0 -775 0 0 -775z
m1410 0 l0 -635 -640 0 -640 0 0 635 0 635 640 0 640 0 0 -635z"/>
<path d="M1840 2615 l0 -775 460 0 460 0 0 -150 0 -150 -455 0 -455 0 0 -770
0 -770 775 0 775 0 0 460 0 460 460 0 460 0 0 460 0 460 460 0 460 0 0 775 0
775 -775 0 -775 0 0 -465 0 -465 -150 0 -150 0 0 465 0 465 -775 0 -775 0 0
-775z m1410 240 l0 -395 -245 0 -245 0 0 -240 0 -240 -390 0 -390 0 0 635 0
635 635 0 635 0 0 -395z m1860 -240 l0 -635 -395 0 -395 0 0 240 0 240 -245 0
-245 0 0 395 0 395 640 0 640 0 0 -635z m-2350 -1455 l0 -240 250 0 250 0 0
-395 0 -395 -635 0 -635 0 0 635 0 635 385 0 385 0 0 -240z"/>
<path d="M0 770 l0 -770 775 0 775 0 0 770 0 770 -775 0 -775 0 0 -770z m1410
-5 l0 -635 -640 0 -640 0 0 635 0 635 640 0 640 0 0 -635z"/>
</g>
</svg>
