<?xml version="1.0" encoding="iso-8859-1"?>
<!-- Generator: Adobe Illustrator 19.0.0, SVG Export Plug-In . SVG Version: 6.00 Build 0)  -->
<svg version="1.1" id="Layer_1" xmlns="http://www.w3.org/2000/svg" xmlns:xlink="http://www.w3.org/1999/xlink" x="0px" y="0px"
	 viewBox="0 0 492.013 492.013" style="enable-background:new 0 0 492.013 492.013;" xml:space="preserve">
<g>
	<g>
		<path d="M268.856,32.313l-31.3-30.6c-2.4-2.3-6.2-2.3-8.5,0.1c-2.3,2.4-2.3,6.2,0.1,8.5l20.9,20.5l-6.7,0.1
			c-57.5,0.7-111.3,23.7-151.4,64.8c-40.1,41-61.8,95.3-61.2,152.8c0.5,41.2,12.6,81,35,115.3c21.9,33.4,52.4,60,88.4,77
			c0.8,0.4,1.7,0.6,2.6,0.6c2.2,0,4.4-1.3,5.4-3.4c1.5-3.1,0.2-6.7-2.8-8.1c-71-33.5-115.7-103.1-116.6-181.5
			c-0.6-54.3,19.9-105.5,57.9-144.4c37.9-38.8,88.7-60.5,143-61.2l6.7-0.1l-20.5,20.9c-2.3,2.4-2.3,6.2,0.1,8.5
			c1.2,1.1,2.7,1.7,4.2,1.7c1.6,0,3.1-0.6,4.3-1.8l30.5-31.2C271.256,38.413,271.256,34.613,268.856,32.313z"/>
	</g>
</g>
<g>
	<g>
		<path d="M426.256,128.113c-22-33.2-52.6-59.8-88.6-76.8c-3-1.4-6.6-0.1-8,2.9c-1.4,3-0.1,6.6,2.9,8
			c71,33.5,115.7,103.1,116.6,181.5c1.3,112-88.8,204.2-200.9,205.5l-6.7,0.1l20.5-20.9c2.3-2.4,2.3-6.2-0.1-8.5
			c-2.4-2.3-6.2-2.3-8.5,0.1l-30.5,31.2c-2.3,2.4-2.3,6.2,0.1,8.5l31.3,30.6c1.2,1.1,2.7,1.7,4.2,1.7c1.6,0,3.1-0.6,4.3-1.8
			c2.3-2.4,2.3-6.2-0.1-8.5l-20.9-20.5l6.7-0.1c57.5-0.7,111.3-23.7,151.4-64.8c40.2-41.1,61.9-95.4,61.3-152.9
			C460.756,202.213,448.656,162.413,426.256,128.113z"/>
	</g>
</g>
<g>
</g>
<g>
</g>
<g>
</g>
<g>
</g>
<g>
</g>
<g>
</g>
<g>
</g>
<g>
</g>
<g>
</g>
<g>
</g>
<g>
</g>
<g>
</g>
<g>
</g>
<g>
</g>
<g>
</g>
</svg>
